<?xml version="1.0" encoding="utf-8"?>
<!-- Generator: Adobe Illustrator 23.0.1, SVG Export Plug-In . SVG Version: 6.00 Build 0)  -->
<svg version="1.1" id="Layer_1" xmlns="http://www.w3.org/2000/svg" xmlns:xlink="http://www.w3.org/1999/xlink" x="0px" y="0px"
	 viewBox="0 0 252.6 314.8" style="enable-background:new 0 0 252.6 314.8;" xml:space="preserve">
<style type="text/css">
	.st0{opacity:0.75;}
	.st1{clip-path:url(#SVGID_2_);fill:#AF8D33;}
</style>
<g class="st0">
	<g>
		<defs>
			<rect id="SVGID_1_" width="252.6" height="314.8"/>
		</defs>
		<clipPath id="SVGID_2_">
			<use xlink:href="#SVGID_1_"  style="overflow:visible;"/>
		</clipPath>
		<path class="st1" d="M252.3,0.3c-1.1,0.9-4.8,3.5-8.3,5.9c-3.4,2.4-9.1,6.7-12.4,9.5c-3.5,2.9-18.9,14.6-34.3,26.2
			c-15.4,11.5-31.2,23.6-35.3,26.9c-4,3.3-14.1,11.3-22.4,17.9l-1.4,1.1c-18.7,14.7-18.7,14.7-27.8,23l-0.7,0.6
			c-7.8,7.1-19.9,20.1-20.7,21.5c-0.1,0.4-0.2,0.7-3.3,4.1c-3.8,4.2-14.6,20-19,27.8c-1.9,3.3-4.7,10.2-6.2,15
			c-3.5,11.3-5.4,15.8-13.1,32.1c-9.6,20.2-18.5,39.4-19.8,42.8c-0.4,1.1-2.3,5-3.9,8.3c-1.9,3.8-3.2,7-3.4,7.6
			c-0.3,1.7-8.7,16.4-9.7,18.1C7.9,293.7,4,300.8,0,308.4v6.4c3.1-6.1,5.8-11.1,7.3-13.5c0.6-1,1.9-3.3,2.9-5.1
			c8.7-16.4,22.4-31.1,44.3-47.7c8.1-6.1,16.4-12.7,18.5-14.7c2.2-2.1,5.3-5.1,7.2-6.8c6.6-6.2,13.2-12.3,13.6-13.4
			c0.3-1.4,1.3-2.3,2-2c0,0,0.1,0,0.1,0c0.1,0,0.5-0.4,0.9-1.1c0.6-1.3,1.9-2.9,2.9-3.7c0.7-0.6,5.5-5.8,11.4-12.5
			c11.5-13,31.5-32.5,38.3-37.3c4-2.9,20.5-20.1,24.1-25.3c16.8-23.8,20.8-30.5,39.1-65.8c1.7-3.2,3.5-6.6,4.1-7.7
			c7.7-13.1,18.4-30.8,20.3-33.7C241.4,17.8,249.5,5,252.6,0C252.5,0.1,252.4,0.2,252.3,0.3 M30.3,256.9l-0.8-0.3l-0.1-1
			c-0.1-1.9,10.6-23.5,12.4-26.8c6.7-12.4,14.7-29.9,18.1-39.8c5-14.4,6.1-17.2,9.1-23c2.6-5.1,14.2-21.8,18.8-27.2
			c1.4-1.7,5-5.8,7.8-9.2c6-7.1,21.2-21.6,29.5-28c3-2.4,6.6-5.2,7.8-6.3c1.3-1.1,6.1-5,11-8.8c4.8-3.7,14.2-11.2,20.9-16.6
			c5.6-4.5,59.7-45.8,61.3-46l1-0.1l0.2,1.3c0.2,0.9,0.2,1-3.3,4.6c-5,5.2-9,8.7-17.1,15c-4.5,3.5-8.4,6.7-9.1,7.5
			c-0.9,0.9-3.4,3.4-5.6,5.4c-2.1,2-5.1,5.1-6.5,6.9c-1.4,1.7-3.3,3.8-4.2,4.5c-0.6,0.4-3.3,3.2-6.4,6.4
			c-8.3,8.7-11.3,11.6-18.8,18.3c-3,2.7-5.9,5.6-6.6,6.7c-1,1.4-2.2,2.8-2.9,3.4c-0.6,0.5-1.8,1.7-2.7,2.7c-1,1.1-2.8,2.9-4,4.2
			c-3.3,3.2-10.2,11.2-10.7,12c-0.2,0.8-1.3,2.2-3.3,4.2c-1.5,1.5-2.5,2.7-2.5,2.8c-0.1,0.3-0.2,1.2-5.6,7.2
			c-19.3,21.8-23,26.7-31.1,40c-8.6,14.1-12.4,19.9-27,40.7C31.8,257.4,31.4,257.3,30.3,256.9 M226.5,36.7
			c-6.7,11.1-14.1,24.3-14.6,25.6c-0.2,1.1-1.6,3.5-2.4,4.5c-1,1.5-4.5,8.1-7.7,14.3c-5.8,11.4-6.9,13.4-11.8,21.1
			c-1.5,2.4-2.4,4.3-2.5,4.6c-0.5,2.5-15.6,23.4-19.8,28.3c-2.5,3-6.3,6.9-8.5,9.1c-8.4,8-15.7,14.6-18.1,16.5
			c-6.4,5-22.9,21.5-33.9,33.9c-7.1,7.9-12.5,14.2-12.9,14.7c-0.9,1.3-3.7,4.1-12.1,12.1c-3.3,3.1-5.4,5.3-5.6,5.4
			c-0.3,1-0.4,1.6-23.9,19.9c-7.9,6.1-14.2,11.3-14.9,12.2c-1.2,1.3-4.1,4.3-5.3,3.9l-1.1-0.5l0.3-1.4c0.3-1.4,12.7-17.8,13.2-18.4
			c6.2-8.1,33.7-48.3,38.7-56.5c10.1-16.5,14.2-22.2,27.6-38.2c3.4-4.1,7-8.6,8.1-10.1c0.2-0.3,2.1-3,2.9-3.4
			c0.4-0.3,3.3-3.5,7.5-8.4c11.6-13.7,30.3-33.3,36.4-38c0.6-0.4,5.1-5.1,10.8-11c18.4-19.2,22.8-23.5,31.5-30.3
			c4.8-3.7,11.1-9.3,14-12.4c5.7-5.9,6-5.8,6.6-5.6l0.5,0.2l0.2,0.5C230.1,30.1,230.2,30.4,226.5,36.7"/>
	</g>
</g>
</svg>
