<?xml version="1.0" encoding="utf-8"?>
<!-- Generator: Adobe Illustrator 23.0.1, SVG Export Plug-In . SVG Version: 6.00 Build 0)  -->
<svg version="1.1" id="Layer_1" xmlns="http://www.w3.org/2000/svg" xmlns:xlink="http://www.w3.org/1999/xlink" x="0px" y="0px"
	 viewBox="0 0 473 607.8" style="enable-background:new 0 0 473 607.8;" xml:space="preserve">
<style type="text/css">
	.st0{opacity:0.75;}
	.st1{clip-path:url(#SVGID_2_);fill:#AF8D33;}
	.st2{clip-path:url(#SVGID_4_);fill:#AF8D33;}
	.st3{clip-path:url(#SVGID_6_);fill:#AF8D33;}
</style>
<g class="st0">
	<g>
		<defs>
			<rect id="SVGID_1_" width="473" height="255.7"/>
		</defs>
		<clipPath id="SVGID_2_">
			<use xlink:href="#SVGID_1_"  style="overflow:visible;"/>
		</clipPath>
		<path class="st1" d="M472.9,39.8c-0.2-0.3-0.7-0.6-1.7-0.6c-0.5,0-1.1,0.1-1.7,0.3c-3.8,1.2-10,1.8-17.5,1.8
			c-10,0-20.2-1.2-26.6-3c-15.3-4.5-24.4-7.3-32.5-10c-5.1-1.8-11.6-3.8-14.5-4.7c-2.9-0.8-9.2-2.7-13.9-4.1
			c-4.7-1.4-10.3-2.9-12.4-3.3c-2.2-0.4-5.1-1-6.5-1.3c-3.9-0.9-18.3-1.9-27.6-1.9c-1.3,0-2.4,0-3.4,0.1c-23,1-45,6.2-63.6,15.2
			c-5,2.4-24.2,13.7-28.5,16.8c-1.6,1.2-8.2,6-14.4,10.7c-21.8,16.4-32.2,21.5-65,32c-12.2,3.9-26.2,9-31.2,11.4
			c-12.7,6-30.6,18.2-45.6,31c-4.3,3.7-5,3.7-5.2,3.7l-0.8-0.1l-0.3-0.8c-0.7-1.9,3.5-8.3,7.1-13.4c4.6-6.5,35-45,40.1-50.8
			c6.1-7,31-30,43.6-40.4c6.3-5.2,19.4-16.1,29.2-24.2c1.7-1.4,3.3-2.8,4.9-4.1h-5.8c-7.7,6.4-8,6.5-8.5,6.5l-1.2-0.1V4.9
			c0-0.6,0-0.9,3.1-5h-3c-9.2,12.6-17.4,21.7-27.9,31c-7.1,6.3-14.6,13.1-16.8,15.2c-2.1,2-5.3,4.9-7,6.3
			c-11.3,9.6-54,62.6-60.1,74.6c-1.6,3.2-3.6,7-4.1,7.7c-0.4,0.6-1.6,2.7-2.8,4.7c-2,3.6-2.5,3.6-3,3.6l-1.2-0.1v-1.4
			c0-1,2.2-11.7,2.7-13.8c2.9-13.7,5.9-33.5,5.9-38.4c0-1.4,0.2-4.2,1-5.4c0.2-0.4,0.9-2.4,1.5-5.2c1.9-8.4,11.9-32.5,15.1-35.6
			c2-2,11.2-18.7,19.9-37.3c1-2.1,2-4.1,2.9-6.1h-2.7c-0.5,1-0.9,1.9-1.4,2.9c-7.6,16-15.1,30.6-17.7,34.7c-0.6,1-2.3,3.7-3.7,6.1
			c-1.4,2.4-3,4.9-3.4,5.5c-0.3,0.5-1.2,2.4-2,4.2c-0.8,1.8-1.3,2.7-2.1,2.7L62.1,56l-0.3-0.5c-0.5-0.7-0.6-1.8,0.8-9.7
			c0.6-3.6,1.4-8.6,1.7-11.2c1-9.2,3.7-21.3,7.8-34.5h-2.7c-2,6.2-3.5,11.1-4,13.4l-1.7,7l-2.2-0.5l0.5-9.8C62,6.9,62.2,3.5,62.4,0
			h-2.6c-0.2,2.4-0.4,5.1-0.6,8.2c-0.5,7.2-1.8,22.8-2.9,34.8c-1.1,11.9-2.5,28.6-3,37.1c-0.5,7.7-1.1,16.5-1.4,18.1
			c-0.2,1.3-0.9,6.1-1.6,10.6c-0.7,4.5-3,17.2-5.2,28.3c-3.3,16.7-4.6,21.6-7.5,27.3c-4.1,8.3-5,10.2-15.3,33.7
			c-4.6,10.5-10.2,22.9-12.4,27.7c-2.2,4.7-4.5,9.6-5.1,10.8c-0.5,1.2-2,4.2-3.2,6.6c-0.4,0.7-0.9,1.8-1.6,3.2v9.3
			c0.9-1.8,1.7-3.5,2.5-5.3c1.7-3.6,6-12.6,9.6-20.1c3.9-8,6.2-13.5,6.4-14.1c0-1.3,0.6-2.6,1.1-2.8c0.4-0.5,1.9-3.6,3.8-8.1
			c8.9-21.2,21.1-46.6,25.5-53.4c2.4-3.7,11.8-13.2,19.3-19.5c13-10.9,21.4-16.6,34.7-23.4c14.5-7.4,19.6-9.3,27.4-10.3
			c2.9-0.4,7.8-1.1,10.9-1.6c3.1-0.5,11.2-1,17.9-1c8.9,0,14.2-0.6,20.4-2.2c7.4-1.9,14.8-3,21.3-3c3.2,0,6.3,0.2,9,0.7
			c9.9,1.7,18.6,2.6,26.8,2.6c8.6,0,16.9-0.9,25.4-2.8c11.8-2.6,15.7-3.9,41.5-13.2c8-2.9,10.5-3.7,15-3.7c1.8,0,3.9,0.1,6.7,0.3
			c14.6,1,27.5,1.5,37.2,1.5c6.9,0,12.1-0.3,15.3-0.8c14.9-2.3,48.2-11.5,58.5-16.2c2.5-1.1,9.5-4.1,15.6-6.6
			c13.6-5.5,20.4-10.2,20.9-11.7C472.9,40.8,473,40.2,472.9,39.8 M173.7,82.4c0-0.9,0-1.6,6.1-4.5c9.8-4.7,18.8-10.5,32.2-20.7
			c14.8-11.3,37.2-24.9,47.9-29.1c14-5.6,34.8-10.4,50.4-11.6c1.5-0.1,3.5-0.2,5.8-0.2c9,0,21.4,0.8,27.8,1.7
			c8.5,1.3,24.8,5.5,38.8,10.2c4.4,1.5,9.1,3,10.2,3.2c1.2,0.3,6.3,2,11.7,3.8c8.5,2.9,18.2,5.5,28.1,7.4l3.4,0.7l0.1,2.8l-3,0.8
			c-1.7,0.5-9,1.2-16.5,1.6c-3.2,0.2-6,0.3-8.7,0.3c-11.4,0-21-1.9-45.7-8.1c-23.3-5.8-33.3-7.9-43.4-7.9c-2.1,0-4.1,0.1-6.3,0.2
			c-11.5,0.7-16.9,2.2-64.1,18c-11.1,3.7-16.4,6.3-27.2,13.4c-9.8,6.4-16.5,10.1-25.5,14.2c-4,1.8-17.4,5.3-20.4,5.3
			c-0.5,0-0.9-0.1-1.3-0.5l-0.4-0.5L173.7,82.4z M175.9,91.5c-3.2,1-11.9,2-16.1,2c-1.8,0-2.7-0.1-3-1.1l-0.3-1l0.5-0.7
			c1.2-1.7,15.2-2.9,18.6-2.9l3,0l0.3,2.8L175.9,91.5z M183.1,89.5c-0.4,0.5-0.9,0.7-1.6,0.7c-0.4,0-0.9-0.1-1.2-0.3
			c-1.1-0.6-1.1-1.5-1.1-1.9c0.2-1.4,1.4-1.5,2-1.5l0.3,0h0c1.1,0,1.7,0.4,2,1.2l0.2,1.1L183.1,89.5z M188.2,88.4
			c-0.4,0.5-0.9,0.7-1.6,0.7c-0.4,0-0.9-0.1-1.2-0.3c-1.1-0.6-1.1-1.5-1.1-1.9c0.2-1.4,1.4-1.5,2-1.5l0.3,0h0c1.1,0,1.7,0.4,2,1.2
			l0.2,1.1L188.2,88.4z M445.9,50.6c-0.4,2.2-22.8,9.9-23.8,10.2c-11.3,3.9-34.5,9.7-43.5,10.9c-5.4,0.7-14.2,1.2-23.5,1.2
			c-8.4,0-15.4-0.4-19.3-1c-2.9-0.5-8.4-0.8-13.3-0.8c-0.8,0-1.6,0-2.4,0c-8.6,0.2-10.5,0.7-25.7,6.4C268,87.5,253,91,237.2,91
			c-6.6,0-13.6-0.6-22.2-2c-4.4-0.7-12.2-1.3-17.1-1.3h-9.1l-0.3-2.8l5.7-1.9c8-2.6,17.1-7.4,28.6-14.9c11.1-7.3,15.6-9.6,26.8-13.5
			c16.7-5.9,45.8-15.1,52-16.5c3.7-0.8,8.8-1.3,14.8-1.3c10.2,0,21.4,1.3,29.8,3.3c6.1,1.5,16.7,4.2,23.5,6
			c17.1,4.5,27.7,6.2,39,6.2c7.9,0,16.9-0.8,29.8-2.8c2.8-0.4,5.2-0.7,6.1-0.7l0.7,0l0.9,0.9L445.9,50.6z"/>
	</g>
</g>
<g class="st0">
	<g>
		<defs>
			<rect id="SVGID_3_" y="433.7" width="162.8" height="174"/>
		</defs>
		<clipPath id="SVGID_4_">
			<use xlink:href="#SVGID_3_"  style="overflow:visible;"/>
		</clipPath>
		<path class="st2" d="M129.1,455.7c-25.3,18.2-36.1,26.1-37,27.1c-0.5,0.6-1.8,1.8-6.4,5.3c-6.8,5.2-12.5,10.2-20.8,18.2
			c-3.1,3-6.1,5.9-6.7,6.4c-4.8,4.3-16.9,19.5-24.5,30.7c-11.4,16.8-14.7,22.2-20.7,34.4c-4.8,9.6-10.4,20-13.1,23.5v6.6
			c3.9-3.7,6.4-5.4,8.7-6.4c10-4.4,21.5-8.8,26.7-10.3c2.7-0.8,4.4-1.5,4.9-1.8c0.5-0.9,1.5-1.2,2.5-0.9c0.2,0.1,0.3,0.1,0.4,0.1
			c0,0,0.1,0,0,0.1c0.6-0.8,3.9-3,5.4-3.9c7.7-4.9,27.2-24.5,35.3-35.5c1.3-1.8,3.3-4.3,4.3-5.5c0.9-1,4.8-6.7,9.2-13.6
			c4.1-6.4,8.8-13.6,10.5-16.2c1.7-2.6,5.4-8.3,8.3-12.9c5.9-9.4,11.9-18.3,20.3-29.8c6.3-8.7,22.2-31.4,26.3-37.4
			C159.9,434.8,151.8,439.3,129.1,455.7 M13,589.5l-0.6-0.3l-0.2-0.7c-0.2-0.8-0.5-1.8,4.5-11.8c5.2-10.3,8.6-15.9,17.1-29
			c13-19.9,25.7-33.7,50.2-54.7c0.4-0.3,44.5-34.1,46.3-33.8l0.8,0.3l0.2,0.8c0.2,0.9-0.3,1.6-1,2.5c-0.5,0.6-1.5,1.7-2.3,2.4
			c-3.5,3.3-9.7,9.7-18.3,19.1L90.6,505c-5.2,5.7-13.1,14.7-17.5,20c-12.7,15.3-22.8,26.4-31.8,35c-6.8,6.5-19.8,20.6-25.8,27.8
			C14.5,589.1,13.8,589.8,13,589.5 M131.8,473.5c-10.4,14.7-15.2,21.9-31.6,48.1c-12.9,20.6-21.6,31.7-37.1,47.7
			c-6.5,6.7-20.9,17.4-25.1,18.2c-1.2,0.2-1.9,0.6-2.2,0.7c-0.4,1-1.6,1.5-2.9,1c-0.4-0.1-1.9,0.1-3.2,0.8c-0.3,0.2-2.8,1.5-4.3,1.1
			l-0.1,0.2l-0.4,0.3c-1.2,0.9-6.4,2.4-7.8,2l-0.6-0.3l-0.2-0.5c-1.4-2.9,24.9-28.4,25.1-28.6c11.4-10.9,17-17,28.5-30.7
			c10.7-12.8,16.1-19.1,17.4-20.2c0.5-0.4,5.9-6.3,12.9-14.1c0.4-0.4,39.5-43.6,41.5-42.9l0.6,0.2l0.2,0.8
			C142.5,458.3,142.6,458.3,131.8,473.5"/>
	</g>
</g>
<g class="st0">
	<g>
		<defs>
			<rect id="SVGID_5_" y="199.3" width="252.6" height="314.8"/>
		</defs>
		<clipPath id="SVGID_6_">
			<use xlink:href="#SVGID_5_"  style="overflow:visible;"/>
		</clipPath>
		<path class="st3" d="M252.3,199.5c-1.1,0.9-4.8,3.5-8.3,5.9c-3.4,2.4-9.1,6.7-12.4,9.5c-3.5,2.9-18.9,14.6-34.3,26.2
			c-15.4,11.5-31.2,23.6-35.3,26.9c-4,3.3-14.1,11.3-22.4,17.9l-1.4,1.1c-18.7,14.7-18.7,14.7-27.8,23l-0.7,0.6
			c-7.8,7.1-19.9,20.1-20.7,21.5c-0.1,0.4-0.2,0.7-3.3,4.1c-3.8,4.1-14.6,20-19,27.8c-1.9,3.3-4.7,10.2-6.2,15
			c-3.5,11.3-5.4,15.8-13.1,32.1c-9.6,20.2-18.5,39.4-19.8,42.8c-0.4,1.1-2.3,5-3.9,8.3c-1.9,3.8-3.2,7-3.4,7.6
			c-0.3,1.7-8.7,16.4-9.7,18.1C7.9,492.9,4,500,0,507.7v6.4c3.1-6.1,5.8-11.1,7.3-13.5c0.6-1,1.9-3.3,2.9-5.1
			c8.7-16.4,22.4-31.1,44.3-47.7C62.6,441.6,70.9,435,73,433c2.2-2.1,5.3-5.1,7.2-6.8c6.6-6.2,13.2-12.3,13.6-13.4
			c0.3-1.4,1.3-2.3,2-2c0,0,0.1,0,0.1,0c0.1,0,0.5-0.4,0.9-1.1c0.6-1.3,1.9-2.9,2.9-3.7c0.7-0.6,5.5-5.8,11.4-12.5
			c11.5-13,31.5-32.5,38.3-37.3c4-2.9,20.5-20.1,24.1-25.3c16.8-23.8,20.8-30.5,39.1-65.8c1.7-3.2,3.5-6.6,4.1-7.7
			c7.7-13.1,18.4-30.8,20.3-33.7c4.3-6.6,12.4-19.3,15.6-24.3C252.5,199.3,252.4,199.4,252.3,199.5 M30.3,456.2l-0.8-0.3l-0.1-1
			c-0.1-1.9,10.6-23.5,12.4-26.8c6.7-12.4,14.7-29.9,18.1-39.8c5-14.4,6.1-17.2,9.1-23c2.6-5.1,14.2-21.8,18.8-27.2
			c1.4-1.7,5-5.8,7.8-9.2c6-7.1,21.2-21.6,29.5-28c3-2.4,6.6-5.2,7.8-6.3c1.3-1.1,6.1-5,11-8.8c4.8-3.7,14.2-11.2,20.9-16.6
			c5.6-4.5,59.7-45.8,61.3-46l1-0.1l0.2,1.3c0.2,0.9,0.2,1-3.3,4.6c-5,5.2-9,8.7-17.1,15c-4.5,3.5-8.4,6.7-9.1,7.5
			c-0.9,0.9-3.4,3.4-5.6,5.4c-2.1,2-5.1,5.1-6.5,6.9c-1.4,1.7-3.3,3.8-4.2,4.5c-0.6,0.4-3.3,3.2-6.4,6.4
			c-8.3,8.7-11.3,11.6-18.8,18.3c-3,2.7-5.9,5.6-6.6,6.7c-1,1.4-2.2,2.8-2.9,3.4c-0.6,0.5-1.8,1.7-2.7,2.7c-1,1.1-2.8,2.9-4,4.2
			c-3.3,3.2-10.2,11.2-10.7,12c-0.2,0.8-1.3,2.2-3.3,4.2c-1.5,1.5-2.5,2.7-2.5,2.8c-0.1,0.3-0.2,1.2-5.6,7.2
			c-19.3,21.8-23,26.7-31.1,40c-8.6,14.1-12.4,19.9-27,40.7C31.8,456.6,31.4,456.5,30.3,456.2 M226.5,235.9
			c-6.7,11.1-14.1,24.3-14.6,25.6c-0.2,1.1-1.6,3.5-2.4,4.5c-1,1.5-4.5,8.1-7.7,14.3c-5.8,11.4-6.9,13.4-11.8,21.1
			c-1.5,2.4-2.4,4.3-2.5,4.6c-0.5,2.5-15.6,23.4-19.8,28.3c-2.5,3-6.3,6.9-8.5,9.1c-8.4,8-15.7,14.6-18.1,16.5
			c-6.4,5-22.9,21.5-33.9,33.9c-7.1,7.9-12.5,14.2-12.9,14.7c-0.9,1.3-3.7,4.1-12.1,12.1c-3.3,3.1-5.4,5.3-5.6,5.4
			c-0.3,1-0.4,1.6-23.9,19.9c-7.9,6.1-14.2,11.3-14.9,12.2c-1.2,1.3-4.1,4.3-5.3,3.9l-1.1-0.5l0.3-1.4c0.3-1.4,12.7-17.8,13.2-18.4
			c6.2-8.1,33.7-48.3,38.7-56.5c10.1-16.5,14.2-22.2,27.6-38.2c3.4-4.1,7-8.6,8.1-10.1c0.2-0.3,2.1-3,2.9-3.4
			c0.4-0.3,3.3-3.5,7.5-8.4c11.6-13.7,30.3-33.3,36.4-38c0.6-0.4,5.1-5.1,10.8-11c18.4-19.2,22.8-23.5,31.5-30.3
			c4.8-3.7,11.1-9.3,14-12.4c5.7-5.9,6-5.8,6.6-5.6l0.5,0.2l0.2,0.5C230.1,229.3,230.2,229.6,226.5,235.9"/>
	</g>
</g>
</svg>
