<?xml version="1.0" encoding="utf-8"?>
<!-- Generator: Adobe Illustrator 23.0.1, SVG Export Plug-In . SVG Version: 6.00 Build 0)  -->
<svg version="1.1" id="Layer_1" xmlns="http://www.w3.org/2000/svg" xmlns:xlink="http://www.w3.org/1999/xlink" x="0px" y="0px"
	 viewBox="0 0 258.7 892.8" style="enable-background:new 0 0 258.7 892.8;" xml:space="preserve">
<style type="text/css">
	.st0{opacity:0.75;}
	.st1{clip-path:url(#SVGID_2_);fill:#A6873E;}
	.st2{fill:#EAE5DF;}
	.st3{clip-path:url(#SVGID_4_);fill:#A6873E;}
	.st4{clip-path:url(#SVGID_6_);fill:#A6873E;}
</style>
<g class="st0">
	<g>
		<g>
			<defs>
				<rect id="SVGID_1_" x="53.9" y="668.9" width="137" height="226.9"/>
			</defs>
			<clipPath id="SVGID_2_">
				<use xlink:href="#SVGID_1_"  style="overflow:visible;"/>
			</clipPath>
			<path class="st1" d="M82.5,883.8c-2.7,4.6-5.1,8.5-7.3,12h-3.4c1.9-2.9,3.8-6.2,6-10.1c9.1-15.8,10.8-18.3,31-44.3
				c7.5-9.7,27-35.6,27-39.5c0.1,0,0.2,0,0.3,0c0.7,0,1.4-1.1,1.4-2.3c0.1-0.3,0.9-2.4,2.3-4.9c5.1-9.4,8.5-19,15.2-42.9
				c2.7-9.4,5.7-19.5,6.6-22.1c4.3-12.3,10-26.3,13.9-33.9c1.5-3,1.5-3.6,1.2-4.2l-0.3-0.8h-0.7c-1.8,0-24.5,31.6-24.7,31.9
				c-2.1,3.2-4.5,6.7-5.3,7.8c-0.3,0.4-1.8,2.5-1.8,3.8c-0.1,0.1-1.2,2-2.8,4.2c-1.8,2.5-4.5,7.1-6.2,10.5c-1.7,3.3-3.6,6.9-4.2,8.1
				c-4.9,9.3-7.3,14.1-10.1,20.5c-2.9,6.7-4.2,9.6-7.6,17.2c-0.6,1.5-1.2,2.6-1.4,2.8c-0.5,0.6-2,4.3-2.2,4.7
				c-2.8,6.9-6.2,14.5-8.4,18.9c-1.1,2.2-2.3,4.8-2.6,5.6c-0.6,1.8-13.1,25.7-14.2,27.1c-0.5,0.5-1.8,2.5-11.7,20.7
				c-1.8,3.4-5.1,10.1-7.3,14.9c-0.8,1.8-1.8,4-2.9,6.2h-8.5c6.8-13.9,13.4-30.7,17.6-46.1c2.6-9.2,4.4-15.2,4.8-15.9
				c0.6-1,2-5.7,2.8-8.6c1.1-3.8,2.9-9.6,4-12.7c0.6-1.8,2.1-6.1,2.2-7.1c0.4-1.5,12.7-32.4,16.5-41.2c2.1-4.8,11-20.5,15.9-28
				c2.6-4,15.1-20,17.9-22.7c5-5.1,12.5-11.4,27.7-23.2c2.5-2,24.6-19.1,25.7-21.3c0,0,0.2-0.1,0.4-0.1c0.7,0,1.5,0.6,1.6,1.2
				c0,0.5-0.7,2.9-2.2,5.6c-2.8,5.2-2.8,5.8-2.8,6.2c-0.1,0-1.4,2.8-3.5,6.5c-6,11.2-15.4,33.3-18.3,43.1c-0.9,3-2.1,6.7-2.7,8.5
				c-0.6,1.8-2.1,7-3.3,11.5c-4.5,17.2-4.5,17.2-9.2,30.1c-2.9,8.1-11.7,25.5-17.3,34.5c-1.6,2.6-11.5,15.7-21.6,28.6
				C96.3,862.4,88.9,872.9,82.5,883.8"/>
		</g>
	</g>
</g>
<path class="st2" d="M169.8,691.2l-0.3-0.9l-0.9-0.1c-0.5,0-1.2,0.2-4.1,2.8c-1.8,1.6-6.9,5.7-11,8.9c-8.6,6.6-22.3,20.6-27.7,28.2
	c-1.9,2.7-4.3,6.1-5.3,7.4c-2.7,3.6-13.9,23.6-16.1,28.6c-0.9,2.2-2.8,7-4.2,10.6c-1.4,3.6-2.9,7.4-3.5,8.6
	C92.1,795.9,83,820.6,83,823.9c-0.1,0.3-1,3-2.4,6.8c-1.4,3.7-3.9,11.8-5.6,17.9c-1.7,6.1-3.8,13.2-4.8,16c-2.1,6-1.5,6.7-1.2,7.2
	l0.3,0.4h0.5c1.1,0,4.3-5.3,9.5-15.7c0.8-1.6,1.5-2.4,1.7-2.5h0.1c0.8,0,1.6-1,1.6-2.4c0.2-0.4,2.2-4.5,5.4-10.5
	c5.8-10.7,5.8-11.6,5.8-11.9c0.1-0.1,0.7-1.5,1.7-3.3c3.5-6.1,7.9-15.7,18.9-41c8.7-20,13.6-29.7,23.7-47c9-15.3,15.6-25,25.4-37.1
	C170.3,693,170.1,692.2,169.8,691.2"/>
<g class="st0">
	<g>
		<g>
			<defs>
				<rect id="SVGID_3_" width="258.7" height="892.8"/>
			</defs>
			<clipPath id="SVGID_4_">
				<use xlink:href="#SVGID_3_"  style="overflow:visible;"/>
			</clipPath>
			<path class="st3" d="M244.3,499.3c-3.6,3.8-13.8,15.6-22.6,26.4c-16.3,19.9-21,24.7-35.9,37.1c-25.2,21-35.1,31.9-39.1,43.2
				c-5.2,14.4-7.9,22.4-9.4,27.4c-0.7,2.2-3.5,9-6.4,15.4c-5.9,12.9-9.4,21.8-13.3,34c-3.3,10.2-3.6,10.2-4.5,10.2h-0.6l-0.3-0.5
				c-0.4-0.7-0.5-1.5,0.3-6.9c0.6-3.8,1.3-9.3,1.6-12.2c1.1-12.1,5.2-32.7,8.3-41.7c0.4-1.1,1.6-5.3,2.6-9.1
				c4.1-15.2,10.4-31.7,15.7-41c4.6-8,12.8-18.7,24.4-31.8c11.2-12.5,15.9-18.2,19.6-23.2c2-2.7,4.5-6.1,5.8-7.7
				c4.5-5.6,11.7-21.4,13.9-30.3c0.2-0.6,1.5-5.6,2.9-11c5.2-19.3,12.5-55.6,15-74.6c0.7-5.4,2.6-16.6,4.3-24.9
				c3.3-16.6,3.8-27.1,2.1-40.3c-1.4-10.5-0.7-23.7,1.6-33.6c1-4.2,2.4-10.7,3-14.6c0.7-4,1.7-8.5,2.2-10.3c0.5-1.5,1.1-4.4,1.3-6.2
				c0.3-1.9,0.9-5.5,1.4-8c0.5-2.3,1.1-5.4,1.3-6.8s1.1-6.6,2.1-11.5c0.9-4.8,1.9-10.9,2.2-13.4c0.1-0.9,0.1-1.5,0.1-1.9
				c-1.5,1.4-4.5,5.7-5.7,7.5c-3,4.3-6.3,8.8-7.2,10s-4.7,6.6-8.4,11.9c-3.7,5.4-7.8,11.2-9.1,13s-3.7,5.7-5.4,8.7
				c-1.3,2.2-3.5,6-4.2,6.3c-1.3,1.4-12.8,21.8-15.4,27.5c-3.2,7-7.6,18.5-8.7,22.7c-0.1,0.3-0.4,1.3-0.7,2.3
				c-0.7,2.1-3.8,18.1-4.2,21.9c-0.7,6-7.3,46.8-8.6,53.3c-0.2,1.2-1.1,5.9-1.8,10.3c-2.4,14.1-6.1,33.6-9.5,49.5
				c-3.9,18.4-4.6,22.2-5.9,37.2c-0.8,8.3-1.5,16.1-1.8,17.8c-0.6,4.3-4.6,18.1-6.7,23.4c-0.7,1.9-1.1,3.1-1.3,3.6
				c0.1,0.4,0.1,1.2-1.4,3.4c-0.9,1.3-5.1,11.6-6.1,15c-0.1,0.3-0.8,2.3-1.5,4.4c-0.7,2-1.5,4.7-1.9,5.8c-0.3,1-0.7,2.5-1.8,2.5
				c-0.1,0-0.2,0-0.3,0l0,0c0.2,0.3,0.6,0.9,0.1,3.4c-0.4,1.9-1,2.8-1.8,2.8l-0.6-0.1l-0.3-0.4c-1-1.2-0.2-3.9,0-4.5
				c0.2-0.5,0.6-1.9,1.7-1.9h0.2c-0.7-1.3-0.9-5.6-1.1-19.2c-0.1-9.8-0.7-29.3-1.4-43.4c-1.1-25.9-0.9-33.1,1.7-55
				c0.4-3.6,1-8.7,1.3-11.4l0.8-7.6c2.8-24.8,3-26.8,3-43.2c0-19.4-0.2-21.1-4.6-45.2c-6.1-32.9-12.6-60.9-17.7-76.8l-3.5-10.6
				l0.5-12.3c0.3-6.8,1.3-15,2.2-18.8c1.6-6.4,2.2-10.9,3-21.9c0.2-3.3,0.6-7.5,0.8-9.3c0.2-1.8,0.8-10.5,1.3-19.5
				c1.1-18.9,2.6-33.4,5.3-50.1c2.7-17.2,2.8-40.7,0.1-52.3c-2.1-9.1-6.5-25.8-7.8-29.3c-0.4-1.2-1.3-4-1.9-6.1s-2.7-9.9-4.8-17.4
				c-2.1-7.4-4.4-15.8-5.1-18.5c-1.1-4.1-7.2-16.7-10-21.4c0,1.1-0.1,2.6,0,4.3c0.3,12.8-0.7,25.1-4.8,57
				c-0.3,2.6-4.4,27.6-5.1,31.5c-2,10.8-3.1,19.4-3.5,27c-0.5,9.5,0.5,16.7,5.2,34.8c1.1,4.4,3.2,15.2,4.7,24.1
				c1.5,8.9,3.8,22.2,5.3,29.6c1.4,7.5,2.8,15.1,3.1,16.9c0.2,1.8,1.1,7.8,2,13.3c1.5,10,1,10.7,0.7,11.2l-0.4,0.5h-0.5
				c-3,0-17.2-46.4-18.3-50.4c-10.1-36.2-12.3-45.2-14.6-59.9c-2.2-14-5-26.1-7.6-32.4c-0.4-1.1-4.4-11.2-8.6-22.2
				C41,74.3,35.8,62.5,33.7,59s-8.8-12.9-15.1-21C9.9,26.7,4.8,19.9,0,12.7v5.6c1.5,2.1,3.3,4.5,4.8,6.5c2.2,3,8.8,11.7,14.6,19.4
				s11.7,16.1,13.1,18.6c0.1,0.2,10.1,20.4,8.2,22.9l-0.6,0.6h-0.5c-0.7,0-1.4-0.7-1.4-2c-0.4-2.1-9.9-17.6-14.4-22.3
				C13.8,51.4,5.7,40,0,28.7v6c0.8,1.5,1.6,2.9,2.3,4c5.4,9,10.5,15.9,14.7,19.8c11,10.3,22.3,30.8,29.3,53.6
				c1.3,4.2,3,9.6,3.8,11.8c1.1,3.2,1.2,4.1,0.8,4.8l-0.4,0.7h-0.6c-0.7,0-1.3,0-5.1-8c-5.5-11.5-13.2-26-16-30.6
				c-4.6-7.3-17.1-24.5-22.7-31.2C3.9,56.9,1.8,54,0,51.1v5.6c2.3,3.4,4.9,6.9,7.8,10.5c10,12.5,12.6,16,18.3,24.9
				c1.4,2.1,3,4.6,3.5,5.3c0.7,0.9,3.2,5.6,5.1,9.6c2.2,4.4,6.1,12,8.5,16.7c2.5,4.8,5.6,12,7,15.9c10,29.3,9.7,29.8,9.3,30.6
				l-0.3,0.7h-0.6c-0.6,0-0.9,0-5.5-7.9c-4.2-7.2-18.6-25.5-29.2-36.9C18.6,120.5,10.3,110,0,96.3v6.2c0.8,1,1.6,2.1,2.4,3.2
				c5.6,7.5,5.7,7.9,5.4,9l-0.4,0.9H6.6c-0.5,0-1-0.2-3.6-2.6c-0.9-0.8-2-1.6-3-2.4v4.4c2.5,2.2,5,4.8,7.7,8c4,4.8,4.1,4.9,3.8,6.1
				l-0.3,0.9h-0.8c-0.5,0-0.9-0.3-2.7-1.5c-1.9-1.3-4.7-2.8-7.6-4.1v4.5c0.8,0.3,1.6,0.7,2.1,1c2.8,1.6,10,6.9,10.8,8.9
				c1.9,0,15.7,12.8,18.2,15.7c2.9,3.4,7.8,8.4,16.3,16.5c7.9,7.7,19.2,22.3,22.2,29.1c5.5,12.1,6.4,14.1,8.2,19.4
				c1,2.9,4.7,12.1,8,20c15.5,37.3,22.1,55.9,26,73.6c7.6,34.1,14.8,71.2,15.2,77.8c0.7,11.9,0.5,30.3-0.4,39.4
				c-2.7,28.6-3.2,31.1-4.6,32.1l-0.2,0.2l0.3,0.4c0.7,0.9,0.7,2.5,0.3,3.7c-0.4,1.2-0.9,1.4-1.3,1.4c-0.9,0-1.3-0.8-1.4-2.5
				c-0.1-1.8,0.4-2.3,0.5-2.5l0.4-0.5h0.1l-0.2-0.3c-0.4-0.6-1.1-1.4-0.5-31.2c0.7-39.3,0.6-39.9-9.6-66.4
				c-8.2-21.3-10.7-28.6-14.9-43.6c-4.2-15-6.7-21.5-11.9-30.2c-5.2-8.8-5.2-9.6-5.2-9.8c-0.1-0.2-0.4-1-1-1.8
				c-2.3-3.2-12.5-25.5-13.6-29.4c-0.2-0.9-0.4-1.5-0.6-1.9c-0.5,1.4-1.3,5-2.5,13.2c-2.7,18.8-0.3,99.2,3.6,119.5
				c3.1,16.1,10.8,44.5,14.8,54.4c6.5,16.1,9.5,22.5,13.1,28.4c13.6,22.2,24.4,57.6,25.7,84c0.4,8.5-0.1,9.9-0.6,10.7l-0.6,0.6h-0.5
				c-1.1,0-1.8-1.2-3-4.9c-0.7-2.2-2.6-7.8-4-12.3c-2.8-8.5-5.7-18.4-8.7-30.5c-4-15.7-6.2-23.4-7.7-27.4
				c-3.9-9.9-11.6-23.2-19.6-33.9c-13.3-17.6-14.6-20-20.3-37.4c-4.5-13.9-11.9-32.9-13.4-35.3c-4.2-6.4-8-11.9-12.6-17.9
				c-2.8-3.7-5.7-8-6.5-9.8c-0.6-1.3-1.2-2.1-1.4-2.4c-0.5-0.2-1.6-1.3-4.6-6.2c-3.6-5.9-8.6-12.6-11.1-15.7c0.3,2.2,0.7,5.1,1,7.9
				c0.5,4.6,1.9,11.7,3,15.4c1.2,3.9,3.3,11.2,4.7,16.3c3.1,11.3,6.4,22.2,8.2,27c1.6,4.4,9.8,36,9.8,38.3c0,1.7,3.1,10.7,8.7,22.5
				c8.9,18.7,12.6,24.2,30.4,45.4c0.7,0.9,1.9,2,2.6,2.5c2.9,2.1,11.5,12.3,16.1,19.1l0.5,0.8c5.6,8.4,5.6,8.4,13,21.5l0.7,1.2
				c9.3,16.5,11.2,20.5,15,33.4l3.2,10.6l-0.2,18.1c-0.2,16.8-0.4,18.8-2.7,26.8c-1.5,5.1-2.4,9.6-2.4,10.5c0,1.7-1,9.8-2.1,16.7
				c-1.1,7.6-2.9,20.5-4,28.3c-2,14.9-2.2,15.3-3.2,15.3h-0.5l-0.3-0.3c-0.4-0.5-0.6-0.7-1.2-14.8c-0.7-17.7-2.1-25.9-2.8-27.1
				c-0.6-1-1-2.5-0.6-3.6c0-1-0.8-5.1-2.2-10.8l-2.7-11l0.7-18.1c1.3-32.7,1.1-38.1-1.6-48.4c-7.4-27.7-18.5-45-36-56.2
				c-4-2.5-9.2-7.1-14.4-12.5c-3.4-3.5-13.9-7.6-22.9-9c-6.1-0.9-13.9-4.1-21.2-8.2v4.1c0.4,0.3,0.8,0.5,1.4,0.9
				c4.3,2.8,13.6,6.2,16.9,6.2c4.4,0,15.2,3.2,19.7,5.8c2.3,1.3,5.8,4.2,7.8,6.5c1.9,2.1,7.2,6.4,11.8,9.6
				C75.2,528,88,549.9,93.7,577.4c0.9,4.6,0.7,29-0.6,31.5c-0.1,0.7-0.3,5.6-0.4,13.1c0,9.9-0.1,11.8-1.7,11.8
				c-1.3,0-1.6-1-3.8-11.1c-2.5-11.4-6.7-28-8-31.7c-0.6-1.8-2.6-8-4.4-13.7c-1.9-6.1-4-11.6-4.7-12.9c-0.1-0.1-1.8-3.2-1.7-4.4
				c-0.7-2-12.8-20.4-18.6-27.9c-4-5.1-17.4-17.5-18.9-18c-0.9,0-1.7-0.7-2-1.6c-0.7-1.2-8.2-6.8-12.2-8.6c-2.1-1-5.9-2.5-8.5-3.4
				c-3.2-1.1-5.6-2.9-8.1-6v5.1c1,1,2,1.9,2.7,2.2c1.7,0.9,4.8,2.1,6.9,2.8c6.9,2.3,14.9,7.7,25.2,17.2
				c10.4,9.5,14.4,13.8,16.7,17.8c1.1,1.9,3.6,5.7,11.4,17c4.4,6.5,11.2,25.9,18.1,52.1c4.4,16.6,17.5,74.5,15.9,77.3l-0.4,0.6H96
				l-0.6-0.1l-0.3-0.4c-1-1.3-9.2-34.3-11.7-45c-4.7-20.2-10.6-37-17.4-50.2c-1.2-2.4-4.2-8-6.5-12.4c-4.7-8.9-10.3-14.9-19.4-20.9
				c-14.8-9.7-18.8-13-26.9-21.8c-5.3-5.8-9.6-11.6-13-17.5v5.9c1.4,2.2,3,4.4,4.8,6.8c9.8,12.8,15.4,17.7,33.3,29.5
				c12.8,8.5,13.8,9.7,25.6,33c4.4,8.6,8.7,19.8,11.9,30.6c1.5,5,3,10.1,3.4,11.3c0.5,1.4,2.3,9.2,3.8,15.9
				c1.7,7.5,5.2,21.6,7.8,31.4c6.5,23.8,8.2,32.9,9.4,48.4c0.6,7.2-3.7,21.3-16.4,54.2c-3.9,10.1-8.7,22.8-10.7,28.2
				c-7.3,19.9-15.8,40.3-19.7,47.3c-5.5,9.8-14.1,24.4-15.4,25.8c-0.6,0.6-2.2,3.2-4.1,6.5h3.6c1.7-2.9,3.2-5.2,4.2-6.4
				c2.3-2.7,14-23.3,17.4-30.6C62,849.2,71,826.6,75,815.6c1.5-4.1,7.2-19.2,12.8-33.7c5.5-14.2,11.1-29.5,12.2-33.3
				c0.1-0.3,2.2-7.4,3.3-8.7c0.3-0.4,1.6-3.2,2.9-7.2c2.4-7.1,10.3-21.7,16.4-30c16.5-22.6,16.7-22.9,22.4-32.1
				c5.7-9.1,22.1-29.1,28.9-35.1c3.6-3.2,6.6-5.9,7.1-6.5c1.1-1.2,7-6.1,20.9-17.4c6.5-5.3,10.4-9.3,16.2-16.5
				c1.7-2.1,8.8-15.8,11.9-23.1c3-7.3,7.5-20.8,11.9-36.1c3.4-11.9,6.3-20.5,13-38.5c1.8-4.8,3-8.6,3.7-10.8
				C256,488.4,250.1,493.3,244.3,499.3 M148.3,538.5c1.4-5,2.8-15.8,3.9-28.9c1-12.7,1.5-16.1,3.5-24.2c0.9-3.5,2-8.9,2.6-11.8
				c0.6-3,1.5-7.7,2.1-10.3c0.6-2.6,1.8-8.6,2.6-12.9c0.8-4.5,2.6-14.1,3.9-21.2c1.3-7.1,2.9-15.5,3.4-18.4c0.5-3,1.1-6.4,1.3-7.6
				s0.7-4.6,1.2-7.6s1.2-7.6,1.6-10.3c0.4-2.6,1-7,1.3-9.7c0.3-2.8,1-7.6,1.7-11c0.6-3.3,1.6-8.8,2.3-12.4
				c2.4-14.1,9.5-31.7,20.6-51.1c3.7-6.4,7.5-12.9,8.8-14.7c14.9-21.3,16.7-24.7,16.8-24.9c0-1.4,0.7-2.1,1.4-2.1l0.7,0.2l0.3,0.4
				c1,1.3,0,3.7-0.9,5.5c-3.1,5.8-16.9,43-17.2,45.5c0,0.2,0,0.9-2.1,6.9c-1.1,3.1-2.9,9.1-4,13.2s-2.2,8.4-2.4,9.3s-0.5,2-0.6,2.6
				c-3.4,17.8-3.8,20.7-5.1,30.8c-1.7,13.6-3.5,23.5-6.1,34.2c-1.7,6.7-4.9,20.9-7.2,31.7c-3.9,18.2-8.8,37-11.7,44.8
				c-0.7,1.8-2.4,7.3-3.8,12.3c-1.5,5.1-3.2,10.7-3.9,12.5c-1.2,3.4-2.3,7.6-2.6,9.8c-0.2,1.8-9.5,26-12.2,26H148l-0.3-0.4
				C147.4,544.2,146.9,543.6,148.3,538.5 M143.6,565.1c3.5-7,5.4-11.3,5.8-12.6c0-0.8,0.6-2.2,2.9-6.3c1.5-2.7,2.5-4.9,2.6-5.1
				c0-1,1.2-3.3,2.3-5c2.5-4.2,4.8-10.6,8.6-24.3c0.1-0.5,3.2-11.5,4.1-12.7c0.2-0.3,0.5-1,0.5-1.5c0-1.3,1-4.6,1.7-6.6
				c2.1-6,10.2-34.8,10.7-38c0.2-1.6,1-5.2,1.7-8c0.7-2.7,1.9-8.2,2.7-12s3.2-13.9,5.4-22.7c4-16.3,4-16.3,5.7-29.7
				c0.7-5.4,1.6-12.8,2.1-16.3c0.9-6.8,4.2-23.8,5.1-26.8c0.3-0.9,1-3.6,1.5-5.9c0.9-3.8,4.7-15.8,7.2-22.9l2.5-7
				c2.7-7.8,8.6-23.3,10-26.3c0.7-1.5,2.8-6.2,4.8-10.5c3.8-8.6,4.1-8.6,4.8-8.6h0.6l0.3,0.6c0.3,0.5,0.5,0.9-0.8,6.4
				c-1.1,4.5-6,27.1-7.6,35c-0.3,1.5-0.8,3.6-1.1,4.5s-0.5,1.7-0.6,2l-0.7,3.4c-1.8,8.7-2.1,17.4-0.9,28.9
				c0.7,6.7,1.4,13.7,1.6,15.5c0.4,4.1-1.5,17.7-3.9,27.5c-0.9,3.7-1.8,8.8-2.1,11.4c-0.3,2.8-0.9,7.2-1.4,9.9
				c-0.5,2.6-1.1,6.7-1.3,9.1c-0.8,7.7-11.2,58.5-14.1,68.7c-3.7,13.2-8.2,25-12.4,32.3c-3.9,6.7-19.4,26.7-28.7,36.9
				c-3.3,3.6-9.3,10.7-13.5,15.9l-7.6,9.5l-1.8-1.8L143.6,565.1z M55.2,123.2c-0.2,0.4-0.6,0.7-1.1,0.7l-0.6-0.1l-0.3-0.2
				c-0.8-0.7-1.3-1.8-1.3-2.9c0-2.3,1.2-2.4,1.4-2.4c1.1,0,1.6,1.5,1.9,2.6C55.4,121.2,55.7,122.3,55.2,123.2 M18.6,127.2l-0.4,0.8
				h-0.7c-0.2,0-0.7,0-2.2-1.2c-2.8-2.3-2.8-2.9-2.8-3.5l0.1-1.2l0,0h-0.7c-0.5,0-0.8-0.3-1.7-1.3c-1.4-1.4-2.2-2.6-1.9-3.8l0.6-1.1
				h0.8c0.3,0,0.9,0,2.4,2.5c0.9,1.5,1.2,2,0.9,2.9l-0.2,0.4h1c1.2,0,4,2.4,4.7,3.7l0.4,1L18.6,127.2z M31.3,141.8l-0.3,1h-0.8
				c-0.3,0-1.2,0-6.7-6.5c-4.1-4.9-4-5.1-3.7-6.1l0.3-0.9h0.8c0.4,0,1,0,6.7,6.4C31.8,140.3,31.6,140.9,31.3,141.8 M99.9,244
				l-0.3,0.4H99c-1,0-1.3,0-3.3-13c-1-6.8-3.2-19.6-4.8-28.5c-1.6-9-3.9-21.6-5-28.2c-2.3-13.1-2.7-15-6.1-29.2
				C76.1,130,76,120,79.3,99.1c1.5-9.6,3.1-19.4,3.6-21.8c0.4-2.3,1-5.9,1.3-7.8c0.2-1.9,1-6.9,1.6-10.9c1.1-6.8,2.9-22.9,3.2-29.7
				c0.1-2.2,0.2-4.2,1.6-4.2c1.3,0,1.7,0,3.3,17.2C95.8,61.8,95.8,84,94,99.8c-0.5,4.5-1.5,12.1-1.9,12.9
				c-0.6,1.5-1.5,14.9-1.4,27.9c0.1,12.2,0.2,13.4,3.5,25.6c3.4,12.6,4.8,21.4,5.9,36.2C100.2,204.5,101.2,242.4,99.9,244 M97,165.1
				c-3.6-10.9-4.8-31-2.6-44.9c2.3-14.5,4-34.8,3.9-47.3c0-8.6-0.2-15.7-0.4-16.7c-0.2-1.5-0.6-7.1-0.9-11.6
				c-0.4-7.3-0.4-7.6,0.1-8.2l0.4-0.5H98c1,0,1.2,1,1.8,3.1c0.6,2.2,1.3,3.9,1.4,4.2c0.6,0.7,1,2,1,3.2c0.1,0.8,1.5,6.1,3.9,13.8
				c4.7,15.3,8.8,31.4,9.9,39c0.8,5.6,1.1,26.4,0.4,30.9c-0.2,1.2-0.6,4.8-1,8.1s-0.7,6.3-0.8,6.6c0,0.3-0.3,2-0.7,3.9
				c-1.6,8.8-4.6,40.6-5.8,60.8c-1.4,24.4-1.7,24.4-3.1,24.4c-1.3,0-1.5-0.6-1.6-10.7C103.3,197.3,101,177.2,97,165.1 M103.6,533.8
				l-0.4,1.1h-0.8c-0.4,0-1.4,0-5.4-7.1c-4.5-7.9-17.5-25.1-24.5-32.1C63,486,51,469.5,44.6,457.1c-7.6-14.8-12.5-29.4-16.5-49
				c-0.5-2.3-9.2-31-10.5-34.5c-0.5-1.2-1.8-5.7-2.9-9.9c-1.1-4.1-3.1-10.9-4.3-14.9c-2.2-7.3-1.8-8-1.5-8.5l0.4-0.7H10
				c0.4,0.1,1.1,0.2,6.7,8.9c2.9,4.5,6.8,10.2,8.6,12.6c11.7,15.5,13.4,18.9,25,51.7c7,19.9,9.1,23.8,20,37.8
				c15.7,20.2,20.7,30.9,26.8,57c1.4,6.2,3.6,14,4.7,17.5C102.5,527.3,104.1,532.3,103.6,533.8 M117.8,515.3l-0.4,0.5H117
				c-0.8,0-1.5-0.7-2-4.3c-0.3-2.1-0.8-3.8-1-4.1c-0.6-1-2.2-6.5-2.7-8.5c-3.1-11.2-10.8-28.7-16.8-38.1
				c-12.1-18.9-25.4-63.2-29.1-96.7c-0.2-1.5-0.6-7.6-0.9-13.6s-0.7-13.3-0.9-16.3c0-0.5-1.5-54.4-0.4-56l0.3-0.5H64l1,0.1l0.2,1.1
				c0.2,1.5,2.5,13.4,5.1,26.5c2.5,13.2,5.6,30.8,6.8,39.3c2.8,19.8,6.3,34.2,12.7,53.3c5.5,16.2,9.4,31.1,16.2,61.5
				c2.1,9.5,5.4,22.9,7.3,29.8C119.6,513.1,118.3,514.7,117.8,515.3 M117.9,489.4l-0.4,0.5H117c-1,0-1.2-0.9-2-3.5
				c-2.2-7-6.4-24.2-8.7-35.4c-4.4-21.5-10.3-43.4-15.3-57c-2.2-6.1-2.2-6.8-2.2-6.9c0-0.3-0.4-1.6-1.1-3.6
				c-3.6-10.2-7.6-30.7-9.7-49.9c-0.2-2.1-0.6-4.4-0.8-5.1c-0.3-1.1-1.1-5.4-1.6-8.9c-0.6-3.9-2.6-14.8-4.5-24.4s-3.7-19.4-4-21.8
				l-0.5-4.3l2.1-1l2.7,5.4c1.5,3,3.8,7.3,5.1,9.7c9.9,17.3,12.4,23.2,17.7,42.1c3.1,10.9,11.3,33.7,16,44.3
				c2.1,4.8,4.7,11.8,5.8,15.5c2.1,7.3,2.2,11.1,1.9,59c-0.1,12.2,0.1,27.5,0.3,34.1C118.5,488.2,118.5,488.6,117.9,489.4 M92,640.3
				c-1.4,0-1.4-2.2-1.4-3.1c0-0.9,0-3.1,1.4-3.1l1,0.3l0.3,0.9c0.3,1.1,0.3,2.7,0,3.7l-0.5,1.2L92,640.3L92,640.3z M96.6,664.8
				c-0.9,0-1.1-1.4-1.6-4.3c-0.5-2.7-1.1-6.1-1.4-7.5c-0.3-1.5-0.4-2.4-0.1-3.1l0.3-0.6h0.5c0.4,0,0.7,0.4,0.9,0.7
				c0.6,0.9,1.3,3.4,1.7,5.3c0.5,2.2,0.8,5.3,0.8,7C97.6,663,97.6,664.8,96.6,664.8 M134.7,646.5c1-2.1,2.6-5.7,3.3-7.7
				c2.5-7,4.8-13.3,4.9-14.1c0-0.3,0-1,4.4-12.4c6.3-16.3,13.5-24.7,40.7-47.5c12.8-10.8,20-17.9,27.3-27.2
				c6.2-7.9,16.9-21.2,18.4-21.2l0.8,0.1l0.3,0.9c0.2,0.7,0.3,1.6-1.8,4.5c-3.2,4.3-11.1,18.2-11.5,19.8c0,1.2-0.6,2.2-1.4,2.5
				c-0.8,1-3.8,5.8-8,13.3C201.7,576,197,582.4,187,592c-4.6,4.4-8.3,7.9-8.6,8.3c-0.5,0.6-4.5,4.7-4.5,4.8
				c-4.4,4.5-8.7,9.7-14.3,17.4c-3.4,4.7-5.3,7.8-12.7,20.5l-8.5,14.7c-3.3,5.7-8.2,14.3-10.9,19.3c-5.3,9.6-5.4,9.6-6.1,9.6h-0.7
				l-0.3-0.7C119.1,683.1,132.4,651.2,134.7,646.5 M247.4,510.5c-0.7,2.2-2.5,7.8-4,12.2c-1.4,4.5-3.1,9.7-3.7,11.4
				c-0.6,1.7-2.5,8-4.2,14c-6.6,22.7-14.5,40.3-22.3,49.3c-3.8,4.4-6.4,6.7-20.2,17.9c-3.7,3-8,6.6-9.4,7.8
				c-5.5,4.9-12.2,10.9-15.7,14.3c-5.7,5.4-20.1,24-27,34.8c-3.4,5.4-8.8,13.2-11.9,17.4c-3.1,4.1-7.5,10-9.6,13
				c-2.7,3.7-2.9,3.8-3.5,3.8h-0.7l-0.3-0.8c-0.4-0.9,0-1.6,0.9-3.2c3.6-6.8,27.8-49.2,31.5-55.4c2-3.3,5.9-9.7,8.5-14.1
				c8.1-13.6,17.7-24.8,34.2-39.9c7.9-7.3,14.8-17.1,28.4-40.5c28-48.1,28.5-48.1,29.1-48.2h0.1h0.7l0.3,0.6
				C248.7,505.8,248.9,506.1,247.4,510.5"/>
		</g>
	</g>
</g>
<g class="st0">
	<g>
		<g>
			<defs>
				<rect id="SVGID_5_" x="-3.2" y="800.7" width="35.8" height="95.1"/>
			</defs>
			<clipPath id="SVGID_6_">
				<use xlink:href="#SVGID_5_"  style="overflow:visible;"/>
			</clipPath>
			<path class="st4" d="M31.2,802.3c-2.5,3-3.6,4-4.1,4.2c-0.5,0.6-2.3,3.3-4.6,7.4c-0.2,0.3-4.6,8.1-5.8,9
				c-0.3,0.2-1.1,1.7-1.7,3.4c-0.5,1.4-1.4,3.6-2.5,4.1c-1.5,1.8-8,17.9-10.1,26c-3.5,14.1-5,23.6-5.5,39.3h2.6
				c0.2-6.4,0.5-11.7,0.7-12.5c0.4-2.8,0.9-6.5,1.1-8.3c0.7-5.6,4.4-21.5,6.4-27.4c0.3-0.9,8.9-21,11-21h0.6l0.3,0.6
				c0.3,0.6,0.5,0.9-0.9,6.9c-0.7,3.1-1.6,6.7-2,8c-1,3.4-4.8,23.3-7.6,39.5c-0.5,2.7-1.4,8.2-2.6,14.3H9c0.7-3.5,1.4-7.2,1.6-8.2
				c0.2-1,1-5.6,1.8-10s1.8-10.2,2.2-12.8c0.1-0.4,7.7-39.3,10.3-39.3h0.5l0.3,0.4c0.4,0.5,0.6,0.7,0.4,10.5
				c-0.3,14.2-2.2,30.9-4.1,36.6c-0.9,2.7-3.6,10-6,16.3c-0.9,2.3-1.7,4.5-2.4,6.4h3c1.3-3.7,2.5-7.3,3.6-10
				c4.9-12.7,6.8-21.4,7.5-35.7l1-17.8c0.3-4.5,1.2-13.2,2.1-19.3s1.8-12.1,1.8-12.2C32.3,801,31.8,801.5,31.2,802.3"/>
		</g>
	</g>
</g>
</svg>
