<?xml version="1.0" encoding="utf-8"?>
<!-- Generator: Adobe Illustrator 23.0.1, SVG Export Plug-In . SVG Version: 6.00 Build 0)  -->
<svg version="1.1" id="Layer_1" xmlns="http://www.w3.org/2000/svg" xmlns:xlink="http://www.w3.org/1999/xlink" x="0px" y="0px"
	 viewBox="0 0 413 469.9" style="enable-background:new 0 0 413 469.9;" xml:space="preserve">
<style type="text/css">
	.st0{opacity:0.75;}
	.st1{clip-path:url(#SVGID_2_);fill:#AF8D33;}
	.st2{clip-path:url(#SVGID_4_);fill:#AF8D33;}
	.st3{clip-path:url(#SVGID_6_);fill:#AF8D33;}
	.st4{clip-path:url(#SVGID_8_);fill:#AF8D33;}
	.st5{clip-path:url(#SVGID_10_);fill:#AF8D33;}
</style>
<g class="st0">
	<g>
		<defs>
			<rect id="SVGID_1_" width="150.2" height="175.7"/>
		</defs>
		<clipPath id="SVGID_2_">
			<use xlink:href="#SVGID_1_"  style="overflow:visible;"/>
		</clipPath>
		<path class="st1" d="M69.9,5.6c6,9.8,15,23.1,19.9,29.7c5,6.6,10.8,14.7,12.9,18c6.1,9.6,9.3,19.2,15.3,46.6
			c3,13.6,4.3,18.4,8.1,30.4c2,6.1,1.8,6.4,1.4,7l-0.4,0.6h-0.6c-0.6,0-0.9,0-5.1-6.7c-2.1-3.4-8.1-13-13.4-21.4
			c-10.3-16.5-29.4-48.8-44.3-75c-11-19.3-13-22.4-19.7-30.3c-1.6-1.9-3-3.4-4.1-4.7h-4.8c3.4,3.2,6.8,6.7,8.1,8.1
			c4.8,5.4,7.2,9.2,19.9,31.7c8.5,15,21.7,37.8,23.1,40c0.5,0.7,5.1,8.4,9.3,15.3c4.7,7.8,9.1,15.1,9.8,16.2c0.8,1.2,4.8,7.5,9,14.1
			c4.2,6.6,8.2,12.8,9,14c0.5,0.7,1.1,1.6,0.7,2.6l-0.4,0.9h-0.7c-1.9,0-14.5-13.9-18.1-18.2c-11.1-13.2-14.7-16.2-25.5-21.6
			c-4.9-2.4-10.8-5.6-13.1-7.1c-5.1-3.2-11.3-10.9-13.8-17c-7.5-18.3-15.8-36.1-17.4-37.9c-0.6-0.7-3.8-6.6-4.2-7.2
			c-2-3.7-3.9-6.9-4.2-7.4c-0.6-0.8-2.2-3.7-3.4-5.9C19.8,14.3,14.3,8.1,4.7,0H0c0.6,0.5,1.3,1.1,1.9,1.6
			c11.6,9.4,14.5,12.9,23.8,28.9c4.8,8.1,7.9,13.2,8.2,13.5c0.8,0.5,1.3,1.5,1.3,2.3c0.2,0.6,1.8,4.5,4.5,10
			c2.6,5.3,6.3,13.8,8.4,18.9c6.6,16.2,12.9,23.1,27,29.4c11,4.9,17.6,10.1,27,21.3c4.7,5.6,11.9,13.3,15.6,16.9
			c3.9,3.7,8,8,9.2,9.7c2.8,3.8,18,20.2,20.6,22.2c1.2,0.9,1.8,1.1,2.1,1.1c0.1,0,0.5,0,0.5-1.6c0-1.2-0.4-2.6-0.8-3
			c-1.8-2.4-8-13-11.3-19.5c-9-17.5-13-29.7-19.6-59.5c-6.5-29.1-10.1-36.9-27.7-60.2c-4.9-6.5-14-20.2-20.2-30.5
			C70.2,0.9,70,0.5,69.7,0h-3.2C67.6,1.8,68.7,3.6,69.9,5.6"/>
	</g>
</g>
<g class="st0">
	<g>
		<defs>
			<rect id="SVGID_3_" x="365.2" y="248.9" width="47.8" height="34.9"/>
		</defs>
		<clipPath id="SVGID_4_">
			<use xlink:href="#SVGID_3_"  style="overflow:visible;"/>
		</clipPath>
		<path class="st2" d="M383.1,271.2c1-1.1,6.2-3.7,6.4-3.8c5.5-2.7,14.7-8.6,23.1-14.6c0.2-0.1,0.3-0.2,0.4-0.3v-3.5
			c-5.8,4.5-24.2,15.3-35.1,20.7c-6.4,3.2-10.9,5.7-12.7,6.8c1.2,0.8,4.4,2,9.5,2.4c3.6,0.3,11.6,1.3,17.8,2.2
			c8,1.2,14.7,2.1,20.4,2.8v-3.5c-2-0.2-4-0.5-5.9-0.7l-9.6-1.4l-0.1-2.8l8.7-2.5c1.9-0.6,4.4-1.4,6.9-2.3v-3.4
			c-6.9,2.4-13,4.1-18.2,5.1l-8.6,1.6c-1.1,0.2-2.1,0.4-2.4,0.5l-0.2,0.1l-1,0l-0.3-0.9C381.9,272.5,382.5,271.8,383.1,271.2"/>
	</g>
</g>
<g class="st0">
	<g>
		<defs>
			<rect id="SVGID_5_" x="261.2" y="377.8" width="151.8" height="92.1"/>
		</defs>
		<clipPath id="SVGID_6_">
			<use xlink:href="#SVGID_5_"  style="overflow:visible;"/>
		</clipPath>
		<path class="st3" d="M338.1,400.2c-24.6,10.8-36.9,18.4-45.5,27.9c-1.8,2-7,8.7-11.6,15c-4.6,6.3-11.2,15.2-14.7,19.8
			c-2.4,3.1-4.2,5.7-5.2,7.1c5.3-0.9,21-6.9,32.1-12.9c1.9-1,11.6-6.2,12.8-6.2c0.3,0,1.5-0.6,2.8-1.4c6.2-4.2,36.4-16.7,59.9-24.7
			c7.3-2.5,12.2-4.5,15.5-6.3c1.9-1.1,7-3.7,11.2-5.9c6.9-3.5,12.7-7.1,17.6-10.8v-4c-4.7,3.5-11.6,7.8-17.5,10.9
			c-5.2,2.7-11.1,5.9-13,7c-3.2,1.8-8.4,3.8-20,7.6c-19.3,6.3-46.8,18-60,25.6c-4.3,2.4-5.1,2.7-5.2,2.7c0,0,0,0,0,0
			c-0.4,0.1-2.7,1.4-6,3.4c-5.6,3.3-18.2,9.4-20.2,9.6l-0.9,0l-0.3-0.9c-0.3-0.9-0.5-1.5,7.5-11.1c6.5-7.9,9.7-10.8,16.3-14.8
			c4.5-2.7,10.5-5.8,13.5-6.9c2.9-1,6.9-2.5,9.1-3.4c5-1.9,21.8-6.5,34-9.3c14.2-3.2,18.9-4.9,33.7-12.4c7.6-3.8,15.1-7.4,16.7-8
			c1.5-0.5,6.1-2.8,10-4.9c0.9-0.5,1.7-0.9,2.4-1.2V388c-15.5,8.4-41.6,20.9-49.8,23.4c-3.8,1.2-13,3.6-20.5,5.5
			c-21.5,5.4-34.4,9.4-40.6,12.6c-2,1-2.7,1.2-3.2,1.2l-1-0.2l-0.3-0.9c-0.4-1.2,0.3-2.3,1.2-3.6c4.6-6.4,41.4-24.6,63.5-31.6
			c4.2-1.3,12.6-3.3,18.8-4.5c13.6-2.6,23.7-5.3,31.9-8.7v-3.6c-10,4.2-21.2,7.3-34.6,9.7C363.7,390,354.7,392.9,338.1,400.2"/>
	</g>
</g>
<g class="st0">
	<g>
		<defs>
			<rect id="SVGID_7_" x="160.3" width="128.5" height="32.5"/>
		</defs>
		<clipPath id="SVGID_8_">
			<use xlink:href="#SVGID_7_"  style="overflow:visible;"/>
		</clipPath>
		<path class="st4" d="M274.4,22l7.7,6.5h-9.3c-3.2,0-8.1-0.8-11.1-1.7c-5.3-1.7-6.4-2.2-17.5-8.7c-15.3-8.9-28.6-12.8-47.7-13.9
			c-5-0.3-10.8-0.7-11.9-1c-0.9-0.2-4.7-1-8.2-1.8c-1.8-0.4-3.7-0.8-5.7-1.4h-10.3c2.6,1.1,4.9,1.9,6.4,2.2c0.9,0.2,2.6,0.7,3.2,1.2
			c1.6,0.9,19.9,3.6,29.2,4.2c17,1.1,31.2,5.5,46,14.3c10.7,6.4,15.7,8.1,25.2,8.7c5.2,0.3,11.1,1,13.6,1.5c1.2,0.3,2.2,0.4,2.9,0.4
			c1.1,0,1.4-0.3,1.6-0.5c0.4-0.5,0.4-0.7,0.4-0.8c0-0.5-0.7-1.8-4.2-4.6c-2.2-1.7-7.8-6.2-12.3-9.8c-8.5-6.9-15.6-12.3-22-16.8
			h-4.9C255.5,7.4,270.4,18.7,274.4,22"/>
	</g>
</g>
<g class="st0">
	<g>
		<defs>
			<rect id="SVGID_9_" x="133.5" width="266.7" height="279.6"/>
		</defs>
		<clipPath id="SVGID_10_">
			<use xlink:href="#SVGID_9_"  style="overflow:visible;"/>
		</clipPath>
		<path class="st5" d="M398.3,234.2c-2.8-3.3-18.2-26.4-21.8-32.9c-1.5-2.6-5-9.3-7.8-15.1c-5.5-11.1-10.7-17.9-36.6-48.6
			c-14.3-16.9-26.3-33.2-31.4-42.5c-6.3-11.5-13.1-20.3-16.9-21.9c-15.3-6.4-41.6-17.9-44-19.3c-1.5-0.9-2.7-1.5-2.8-1.6
			c-0.3,0-0.7,0-12.7-7.2c-7.2-4.3-12.2-6.8-12.9-6.9c-1,0-2.4-0.4-3.1-1.2c-1-1-9.3-2.9-15.3-3c-8.2-0.1-8.2-0.1-35.6-22.5l-1.2-1
			c-1.9-1.5-5.4-4.5-7.8-6.7c-1-0.9-2.6-2.3-4.4-3.9h-10.5c1.2,1.9,2.2,3.7,3,5.6c2.8,6.7,6.2,24.2,7.3,37.4
			c1.3,16.4,1.6,19.2,2.6,27.7c1,8.3,3.9,19.2,5.4,21.7c1.3,2.1,10.2,21.4,11.6,25.2c1.8,4.8,2.9,9.2,5,19.4
			c4.3,21.1,9.6,30.8,28.4,51.9c1.9,2.1,6,7.5,9.2,12c3.1,4.4,6.2,8.7,6.9,9.6c1.6,2,18.1,26.5,20.5,30.5c0.9,1.5,3,4.7,4.7,7
			c5.7,8,10.1,14.9,13.5,21.2c5.1,9.4,6.7,10.4,7.2,10.4c0,0,0.1-0.1,0.3-0.7c0.3-1-0.5-3.1-4.3-11.4c-5.6-12.1-8.4-18.9-13.4-31.5
			l-0.7-1.7c-5.6-14.3-5.6-14.3-8.9-26.8l-0.4-1.6c-3.8-14.4-6.2-28.4-7-41.5c-1.3-22.1-3.7-33.4-9.3-44.8c-2.9-6-3.2-6.5-6.5-11.1
			c-4.3-6.1-16.3-25.2-19.1-30.4c-2.3-4.3-13.5-25.9-15.6-30c-1.9-3.8-6.8-10.6-18-25.1C145.2,8.9,145.2,8.9,145.7,7.6l0.4-0.9h0.8
			c0.4,0,0.8,0.2,1.6,0.8c1.2,0.8,2.7,2,3.2,2.4c5.7,5.3,11.3,9.9,11.8,10.2c1.3,0,2.8,2.2,2.8,2.3c0.6,0.8,1.6,1.8,2.1,2.1
			c0.6,0.3,13.6,9.1,13.7,11.3c0.1,0.3,0.6,1.3,1.5,2.6c1,1.4,4.4,7.2,7.6,12.9c6.5,11.7,16.5,24.8,23.1,30.5
			c3.7,3.2,14.3,10.7,25.8,18.3c1,0.7,3,2.3,4.6,3.7c1.5,1.4,2.7,2.1,2.8,2.2c2.9,0,17.7,20.1,23.2,28.5c8,12.4,13.7,19.7,19.4,24.9
			c5.3,4.9,26,19,40.1,27.5c15.8,9.5,23.4,15,36.8,26.8c5.3,4.6,13.6,11.4,18.6,15.1c5,3.7,10.2,7.7,11.5,8.9
			c1.2,1.1,2.1,1.3,2.4,1.3c0.5,0,0.6-0.3,0.7-0.4C400.3,237.9,400,236.2,398.3,234.2 M158.2,31.1l5.6,7.2c3.2,4,7.3,10.4,9.2,14.2
			c2,4,3.8,7.3,4.1,7.8c0.5,0.7,3.3,6.2,5.7,11c2.9,5.8,5.7,10.9,6.6,12c2,2.7,2.1,3.6,2,3.6c0,0,0,0,0,0
			c0.4,1.2,6.3,10.8,14.5,22.8c9.4,13.8,13.4,24.1,14.6,38.1c0.3,3.6,0.7,7.3,0.9,8.3c0.2,1.2,0.6,7,0.9,11.6
			c0.7,12.3,4.5,32,8.6,46c0.3,1.2,0.6,2,0.1,2.8l-0.4,0.7h-0.6c-0.5,0-0.9-0.4-1.2-0.8c-1.7-1.9-16.7-40.4-20.3-51.1
			c-1.9-5.6-5.6-16.9-8.4-25.3c-3-9-5.3-15.9-5.6-16.7c-4.6-12-6.5-16.8-9-22.3c-5.3-12-6.8-15.1-8.8-18.5c-2.2-3.7-2.3-4.5-2.2-4.5
			c0,0,0,0,0,0c-0.1-0.5-1.3-3.3-3.2-7c-3.7-7.7-9.5-22-12.9-31.8l-2.2-6.4L158.2,31.1z M147,17c2,3,4.8,9.3,6.4,14.4
			c5.9,18.6,17.7,47.4,22.3,54.1c0.5,0.7,1.2,2.1,1.2,3.1c0.1,0.3,0.5,1.4,1.4,2.8c3.2,5.2,13.4,31.1,19.5,49.4
			c9.9,30,12.7,37.9,23.5,64.6c6.5,16.1,6.2,16.7,5.8,17.6l-0.4,0.7h-0.6c-0.6,0-0.9-0.4-1.3-0.9c-1.3-1.8-11.3-16.2-14-20
			c-4.8-6.8-8.3-11.2-21.8-27.5c-9-10.9-14.4-21.7-16.9-34c-0.5-2.7-1.5-6.7-2.1-9.1c-0.6-2.4-1.6-6.5-2.2-9.2
			c-1.3-5.5-5.3-15.3-9.7-23.8c-4.5-8.8-5.9-12.5-7.2-18.9c-1.4-7.1-2.9-19.5-3.6-30.8c-0.7-11.2-2.6-24.6-4.2-30.4
			c-0.9-3.3-1.4-5.2-1.4-5.7l0-1.5h1.1C143.2,11.7,143.5,11.7,147,17 M193.2,38.9l0.2-1.1l0.7-0.3c0.6-0.2,1.3-0.4,2.2-0.4
			c3.7,0,10.2,2,15.9,4.8c3.6,1.8,10,5.5,14.4,8.2c9.3,5.8,15.1,8.7,32.8,15.8c7.6,3.1,14.8,6.2,16.3,7c1.6,0.9,2.9,1.4,3.2,1.4
			c1.2,0,3.7,1.5,7.6,4.6c1.5,1.1,7.2,9.8,11.8,17.3c10.8,17.6,21.4,31.8,37.9,50.9c21.1,24.4,23.6,27.8,30.4,40.7
			c3.6,6.9,7.3,13.7,8.3,15.2c0.6,0.9,1,1.5,0.7,2.5l-0.3,0.8h-0.7c-0.7,0-0.8,0-12.5-13.5c-2.9-3.3-7.1-8.1-9.5-10.7
			c-2.4-2.6-7.9-9-12.2-14.1c-23.1-27.7-41.8-46-64.5-63.4c-7.4-5.7-20.7-15.9-29.6-22.7c-8.9-6.8-24.6-18.8-35-26.8
			C193,41.2,193.1,40.3,193.2,38.9 M374.3,216.1l-12.4-10.4c-7.4-6.2-19.4-14.7-29.8-21.2c-9.7-6-19.6-12.3-22.2-14.1
			c-2.6-1.8-6.3-4.3-8.3-5.7c-10.8-7.3-18.7-16.1-29-32.6c-2.8-4.4-8.1-11.8-11.6-16.2c-7.8-9.8-12.5-13.7-35.8-29.9
			c-11.4-7.9-18.6-15.6-27.5-29.4c-1.7-2.6-3.7-6-4.2-6.9c-0.2-0.4-0.7-1.5-0.2-2.6l0.7-0.9h0.7c1.1,0,2.6,1.2,3.6,2.2
			c1.1,1.1,4.3,3.5,6.9,5.3c2.8,1.9,11.2,8.4,18.7,14.5c13,10.4,42,32.5,43.4,33.3c0.4,0,0.7,0,14.3,11.2
			c20.3,16.7,34.4,30.8,53.8,53.6c6,7,14.1,16.4,18.2,21c4.1,4.6,10.8,12.4,14.9,17.5l7.4,9L374.3,216.1z"/>
	</g>
</g>
</svg>
