<?xml version="1.0" encoding="utf-8"?>
<!-- Generator: Adobe Illustrator 23.0.1, SVG Export Plug-In . SVG Version: 6.00 Build 0)  -->
<svg version="1.1" id="Layer_1" xmlns="http://www.w3.org/2000/svg" xmlns:xlink="http://www.w3.org/1999/xlink" x="0px" y="0px"
	 viewBox="0 0 266.7 279.6" style="enable-background:new 0 0 266.7 279.6;" xml:space="preserve">
<style type="text/css">
	.st0{opacity:0.75;}
	.st1{clip-path:url(#SVGID_2_);fill:#AF8D33;}
</style>
<g class="st0">
	<g>
		<defs>
			<rect id="SVGID_1_" width="266.7" height="279.6"/>
		</defs>
		<clipPath id="SVGID_2_">
			<use xlink:href="#SVGID_1_"  style="overflow:visible;"/>
		</clipPath>
		<path class="st1" d="M264.8,234.2c-2.8-3.3-18.2-26.4-21.8-32.9c-1.5-2.6-5-9.3-7.8-15.1c-5.5-11.1-10.7-17.9-36.6-48.6
			c-14.3-16.9-26.3-33.2-31.4-42.5c-6.3-11.5-13.1-20.3-16.9-21.9c-15.3-6.4-41.6-17.9-44-19.3c-1.5-0.9-2.7-1.5-2.8-1.6
			c-0.3,0-0.7,0-12.7-7.2c-7.2-4.3-12.2-6.8-12.9-6.9c-1,0-2.4-0.4-3.1-1.2c-1-1-9.3-2.9-15.3-3c-8.2-0.1-8.2-0.1-35.6-22.5l-1.2-1
			C20.8,9,17.4,6,15,3.9c-1-0.9-2.6-2.3-4.4-3.9H0c1.2,1.9,2.2,3.7,3,5.6c2.8,6.7,6.2,24.2,7.3,37.4c1.3,16.4,1.6,19.2,2.6,27.7
			c1,8.3,3.9,19.2,5.4,21.7c1.3,2.1,10.2,21.4,11.6,25.2c1.8,4.8,2.9,9.2,5,19.4c4.3,21.1,9.6,30.8,28.4,51.9c1.9,2.1,6,7.5,9.2,12
			c3.1,4.4,6.2,8.7,6.9,9.6c1.6,2,18.1,26.5,20.5,30.5c0.9,1.5,3,4.7,4.7,7c5.7,8,10.1,14.9,13.5,21.2c5.1,9.4,6.7,10.4,7.2,10.4
			c0,0,0.1-0.1,0.3-0.7c0.3-1-0.5-3.1-4.3-11.4c-5.6-12.1-8.4-18.9-13.4-31.5l-0.7-1.7c-5.6-14.3-5.6-14.3-8.9-26.8l-0.4-1.6
			c-3.8-14.4-6.2-28.4-7-41.5c-1.3-22.1-3.7-33.4-9.3-44.8c-2.9-6-3.2-6.5-6.5-11.1c-4.3-6.1-16.3-25.2-19.1-30.4
			c-2.3-4.3-13.5-25.9-15.6-30c-1.9-3.8-6.8-10.6-18-25.1C11.7,8.9,11.7,8.9,12.1,7.6l0.4-0.9h0.8c0.4,0,0.8,0.2,1.6,0.8
			c1.2,0.8,2.7,2,3.2,2.4c5.7,5.3,11.3,9.9,11.8,10.2c1.3,0,2.8,2.2,2.8,2.3c0.6,0.8,1.6,1.8,2.1,2.1c0.6,0.3,13.6,9.1,13.7,11.3
			c0.1,0.3,0.6,1.3,1.5,2.6c1,1.4,4.4,7.2,7.6,12.9C64.1,63,74.1,76.1,80.7,81.7c3.7,3.2,14.3,10.7,25.8,18.3c1,0.7,3,2.3,4.6,3.7
			c1.5,1.4,2.7,2.1,2.8,2.2c2.9,0,17.7,20.1,23.2,28.5c8,12.4,13.7,19.7,19.4,24.9c5.3,4.9,26,19,40.1,27.5
			c15.8,9.5,23.4,15,36.8,26.8c5.3,4.6,13.6,11.4,18.6,15.1c5,3.7,10.2,7.7,11.5,8.9c1.2,1.1,2.1,1.3,2.4,1.3c0.5,0,0.6-0.3,0.7-0.4
			C266.8,237.9,266.5,236.2,264.8,234.2 M24.7,31.1l5.6,7.2c3.2,4,7.3,10.4,9.2,14.2c2,4,3.8,7.3,4.1,7.8c0.5,0.7,3.3,6.2,5.7,11
			c2.9,5.8,5.7,10.9,6.6,12c2,2.7,2.1,3.6,2,3.6c0,0,0,0,0,0c0.4,1.2,6.3,10.7,14.5,22.8c9.4,13.8,13.4,24.1,14.6,38.1
			c0.3,3.6,0.7,7.3,0.9,8.3c0.2,1.2,0.6,7,0.9,11.6c0.7,12.3,4.5,32,8.6,46c0.3,1.2,0.6,2,0.1,2.8l-0.4,0.7h-0.6
			c-0.5,0-0.9-0.4-1.2-0.8c-1.7-1.9-16.7-40.4-20.3-51.1c-1.9-5.6-5.6-16.9-8.4-25.3c-3-9-5.3-15.9-5.6-16.7
			c-4.6-12-6.5-16.8-9-22.3c-5.3-12-6.8-15.1-8.8-18.5C41,78.8,41,77.9,41,77.9c0,0,0,0,0,0c-0.1-0.5-1.3-3.3-3.2-7
			c-3.7-7.7-9.5-22-12.9-31.8l-2.2-6.4L24.7,31.1z M13.4,17c2,3,4.8,9.3,6.4,14.4C25.7,50,37.5,78.8,42.1,85.4
			c0.5,0.7,1.2,2.1,1.2,3.1c0.1,0.3,0.5,1.4,1.4,2.8c3.2,5.2,13.4,31.1,19.5,49.4c9.9,30,12.7,37.9,23.5,64.6
			c6.5,16.1,6.2,16.7,5.8,17.6l-0.4,0.7h-0.6c-0.6,0-0.9-0.4-1.3-0.9c-1.3-1.8-11.3-16.2-14-20c-4.8-6.8-8.3-11.2-21.8-27.5
			c-9-10.9-14.4-21.7-16.9-34c-0.5-2.7-1.5-6.7-2.1-9.1c-0.6-2.4-1.6-6.5-2.2-9.2c-1.3-5.5-5.3-15.3-9.7-23.8
			c-4.5-8.8-5.9-12.5-7.2-18.9c-1.4-7.1-2.9-19.5-3.6-30.8C12.9,38.2,11,24.8,9.4,18.9C8.4,15.6,8,13.7,8,13.2l0-1.5h1.1
			C9.7,11.7,10,11.7,13.4,17 M59.6,38.9l0.2-1.1l0.7-0.3c0.6-0.2,1.3-0.4,2.2-0.4c3.7,0,10.2,2,15.9,4.8c3.6,1.8,10,5.5,14.4,8.2
			c9.3,5.8,15.1,8.7,32.8,15.8c7.6,3.1,14.8,6.2,16.3,7c1.6,0.9,2.9,1.4,3.2,1.4c1.2,0,3.7,1.5,7.6,4.6c1.5,1.1,7.2,9.8,11.8,17.3
			c10.8,17.6,21.4,31.8,37.9,50.9c21.1,24.4,23.6,27.8,30.4,40.7c3.6,6.9,7.3,13.7,8.3,15.2c0.6,0.9,1,1.5,0.7,2.5l-0.3,0.8h-0.7
			c-0.7,0-0.8,0-12.5-13.5c-2.9-3.3-7.1-8.1-9.5-10.7c-2.4-2.6-7.9-9-12.2-14.1c-23.1-27.7-41.8-46-64.5-63.4
			c-7.4-5.7-20.7-15.9-29.6-22.7c-8.9-6.8-24.6-18.8-35-26.8C59.4,41.3,59.5,40.3,59.6,38.9 M240.7,216.1l-12.4-10.4
			c-7.4-6.2-19.4-14.7-29.8-21.2c-9.7-6-19.6-12.3-22.2-14.1c-2.6-1.8-6.3-4.3-8.3-5.7c-10.8-7.3-18.7-16.1-29-32.6
			c-2.8-4.4-8.1-11.8-11.6-16.2c-7.8-9.8-12.5-13.7-35.8-29.9C80.1,78.1,72.9,70.4,64,56.7c-1.7-2.6-3.7-6-4.2-6.9
			c-0.2-0.4-0.7-1.5-0.2-2.6l0.7-0.9H61c1.1,0,2.6,1.2,3.6,2.2c1.1,1.1,4.3,3.5,6.9,5.3c2.8,1.9,11.2,8.4,18.7,14.5
			c13,10.4,42,32.5,43.4,33.3c0.4,0,0.7,0,14.3,11.2c20.3,16.7,34.4,30.8,53.8,53.6c6,7,14.1,16.4,18.2,21
			c4.1,4.6,10.8,12.4,14.9,17.5l7.4,9L240.7,216.1z"/>
	</g>
</g>
</svg>
