<?xml version="1.0" encoding="utf-8"?>
<!-- Generator: Adobe Illustrator 23.0.1, SVG Export Plug-In . SVG Version: 6.00 Build 0)  -->
<svg version="1.1" id="Layer_1" xmlns="http://www.w3.org/2000/svg" xmlns:xlink="http://www.w3.org/1999/xlink" x="0px" y="0px"
	 viewBox="0 0 252.6 1505" style="enable-background:new 0 0 252.6 1505;" xml:space="preserve">
<style type="text/css">
	.st0{opacity:0.75;}
	.st1{clip-path:url(#SVGID_2_);fill:#AF8D33;}
	.st2{clip-path:url(#SVGID_4_);fill:#AF8D33;}
	.st3{clip-path:url(#SVGID_6_);fill:#AF8D33;}
</style>
<g class="st0">
	<g>
		<defs>
			<rect id="SVGID_1_" x="135.5" y="1074.6" width="112" height="241.8"/>
		</defs>
		<clipPath id="SVGID_2_">
			<use xlink:href="#SVGID_1_"  style="overflow:visible;"/>
		</clipPath>
		<path class="st1" d="M231.3,1127.1c0.8-2.2,3.5-10.7,5.6-17.6c2.5-8.4,7-19.7,10.7-27v-7.9c-10.7,12.8-15.2,20.5-21.6,35.8
			c-5.8,13.9-20.7,41.4-28.9,53.5c-11.5,16.9-15.8,26.3-24.4,52.8c-3.4,10.6-11.6,34.1-13.8,39.9c-0.5,1.4-2.4,6.5-4.3,11.4
			c-1.8,5-4,10.6-4.9,12.5c-0.8,1.9-3,7.4-4.8,12.3c-1.8,5-4.4,11.5-5.7,14.5c-1.3,2.9-2.9,6.8-3.6,9.1c6.4-5.2,17.5-16.1,21.8-21.5
			c2.8-3.5,7.5-9.1,10.5-12.6c14.2-16.5,17.6-21,18-21.6c0.2-1.1,1-1.9,1.6-2c0.4-0.3,2.7-3,16.8-24.1c1.9-2.9,3.4-5.6,3.5-6.2
			c0.3-1.2,1-2.5,1.7-3.1c1.2-1.4,10.2-19.1,14.5-28.8c3.3-7.4,7-22.2,7.8-31.2c0.6-7.2,4-24,6.9-34.5c1-3.7,2.9-10.6,4.2-15.5
			c1.1-4.1,2.8-9.4,4.8-15.1v-6.2c-1.7,4.8-3.7,10.4-4.7,13.2c-2.1,5.6-9.3,33.4-11.5,44.4c-0.6,2.8-1.6,9.1-2.1,13.7
			c-0.6,4.8-1.2,9.4-1.4,10.3c-0.7,3.8-5.6,20-6.8,22.2c-0.7,1.1-2.4,4.6-3.9,7.8c-1.6,3.3-4.7,9.6-7.1,14c-2.6,4.9-4.6,8.6-4.8,9.1
			c-2,4.3-18.6,27.2-27.3,37.8c-5.7,6.9-11.5,13.9-12.8,15.6c-2.2,2.8-2.9,3.2-3.6,2.9l-0.7-0.3l-0.2-0.7c-0.2-0.6-0.4-1.4,2.5-5.8
			c4-6.1,15.8-28.7,20.5-38.9c5-11,15.7-36.9,20.8-50.3c4.3-11.3,11.4-27.4,14.6-33.3c0.9-1.6,1.4-2.7,1.6-3.2
			c-0.1-0.7,0.1-1.5,1.3-3.1C222.7,1148.3,226.5,1139.5,231.3,1127.1 M219.3,1149.2c-8.4,17.5-11.3,24.3-19.7,45.6
			c-2.7,6.8-5.6,14-6.4,15.9c-0.9,1.9-2.4,5.6-3.5,8.3c-3.9,9.8-7.9,19-11,25.2c-1.8,3.7-3.4,7-3.7,7.7c-1.1,2.7-9.9,18-16,28.1
			l-0.8,1.3c-8.3,13.7-8.3,13.7-9.5,13.4c-1-0.3-1-1.7-1-2.6c0-1.5,0.9-4,1.8-5.7c0.8-1.7,3-7.1,4.8-12c1.8-5,4.6-12.6,6.3-17
			c1.6-4.4,3.6-10,4.5-12.5c0.8-2.5,2.3-6.5,3.3-8.9c0.9-2.2,2.1-6.1,2.7-8.3c0.6-2.5,2.3-7.7,3.8-11.6c1.5-3.7,3.3-8.7,3.9-10.9
			c1.9-6,8.3-20.8,11-25.1c1.2-2,4.7-7.3,7.8-11.9c3.1-4.6,6.6-9.9,7.9-11.9c2.7-4.4,15.9-29.4,18.8-35.7c1.1-2.4,2.2-4.8,2.5-5.3
			c0.3-0.5,2.4-5.5,4.8-11.1c5-11.7,5.6-11.5,6.5-11.2l0.5,0.2l0.2,0.6c0.3,0.6,0.3,1.3-1.1,5.6l-2.6,8.1c-0.5,1.7-1.8,5.7-2.8,9.1
			C230.1,1124,223.6,1140.4,219.3,1149.2"/>
	</g>
</g>
<g class="st0">
	<g>
		<defs>
			<rect id="SVGID_3_" x="116.7" y="1396.3" width="136" height="108.7"/>
		</defs>
		<clipPath id="SVGID_4_">
			<use xlink:href="#SVGID_3_"  style="overflow:visible;"/>
		</clipPath>
		<path class="st2" d="M242.9,1407.3c-20.8,22.6-26.4,28-31.6,30.2c-10.1,4.4-21.7,8.8-27,10.3c-2.7,0.8-4.5,1.5-5,1.8
			c-0.5,0.9-1.5,1.2-2.6,0.9c-0.2-0.1-0.3-0.1-0.4-0.1c0,0-0.1,0,0-0.1c-0.6,0.8-4,3-5.4,3.9c-7.8,4.9-27.5,24.5-35.7,35.6
			c-1.3,1.8-3.3,4.3-4.4,5.5c-0.6,0.7-2.8,3.8-5.6,8c-0.1,0-0.1,0-0.2,0c-2.7,0.6-5.5,1.1-8.3,1.7h19.1c1.4-0.8,5.6-1.9,17.6-4.2
			c-1.1,1.3-2.3,2.7-3.6,4.2h3.9c1.5-1.8,3-3.5,4.5-5.1c10-1.9,17.2-3,23.8-3c-2,2.8-4,5.5-6,8.2h3.1c2.1-2.8,4.1-5.5,5.9-8.1
			c3.6,0.1,7.4,0.6,12.4,1.5c11.2,2,12.7,2.2,22.5,6.7h8c-20.8-9.1-28.2-10.9-40.8-11.1c10.5-15.4,13.9-20.9,19.8-32.6
			c5.4-10.7,11.8-22.4,14.1-24.5c0.6-0.6,1.2-1.3,1.2-1.3c0.4-1.8,19-21.7,19.2-21.9c0.5-0.4,0.8-1,0.9-1.2c0.2-1.2,1-2,1.8-2.1
			c0.8-0.5,5.1-5.3,8.5-9.3v-4.5C249.7,1399.8,246.5,1403.4,242.9,1407.3 M157.2,1496.4c-2.2,0.4-4.5,0.9-7,1.5
			c-3.4,0.8-12.6,2.7-21.6,4.6c8.5-12.1,16.3-21.2,27.8-32.9c6.6-6.7,21.1-17.4,25.4-18.2c1.2-0.2,1.9-0.6,2.2-0.7
			c0.4-1,1.6-1.5,3-1c0.5,0.1,1.9-0.1,3.3-0.8c0.3-0.2,2.8-1.5,4.4-1.1l0.1-0.2l0.4-0.3c1.2-0.9,6.5-2.4,7.9-2l0.6,0.3l0.2,0.5
			c1.4,2.9-25.2,28.4-25.5,28.6C169.6,1482.9,164.3,1488.3,157.2,1496.4 M203.3,1462c-5.3,10.3-8.7,15.9-17.3,29
			c-0.6,0.9-1.3,1.9-1.9,2.8l-1.1,0c-7.7,0-13.7,0.4-20.9,1.7c5.9-6.5,11.2-12,16.2-16.6c6.9-6.5,20.1-20.6,26.1-27.8
			c1.1-1.3,1.8-2,2.6-1.7l0.7,0.3l0.2,0.7C208.1,1451.1,208.4,1452,203.3,1462"/>
	</g>
</g>
<g class="st0">
	<g>
		<defs>
			<rect id="SVGID_5_" width="252.6" height="954"/>
		</defs>
		<clipPath id="SVGID_6_">
			<use xlink:href="#SVGID_5_"  style="overflow:visible;"/>
		</clipPath>
		<path class="st3" d="M188,140.8c7.4-19.9,15.9-40.3,19.9-47.3c5.5-9.8,14.3-24.4,15.6-25.8c1.5-1.6,10.7-17.5,13-22.8
			c1.2-2.7,4.1-9.6,6.5-15.3c2.6-6.1,6.1-13.2,9.5-19.2V0c-0.2,0.3-0.5,0.5-0.7,0.8c-2.5,2.7-10.6,8.8-18,13.6
			c-7.4,4.7-14.5,9.4-15.8,10.3c-3.1,2-17.2,13.1-18.3,14.1c-0.5,0.5-2.6,2.4-4.8,4.3c-5.4,4.6-11.5,13.1-21.6,30.1
			c-6.5,10.9-14,21.5-27.8,38.9c-10.2,12.9-20.2,26-21.9,28.6c-5.7,9-14.6,26.5-17.5,34.5c-4.8,12.9-4.8,12.9-9.3,30.1
			c-1.2,4.6-2.7,9.7-3.4,11.5c-0.6,1.8-1.8,5.6-2.7,8.5c-2.9,9.8-12.4,31.9-18.5,43.1c-2.1,3.8-3.4,6.5-3.5,6.5c0,0.4,0,1-2.8,6.2
			c-1.5,2.7-2.2,5.1-2.2,5.6c0.1,0.6,0.9,1.2,1.6,1.2c0.2,0,0.4-0.1,0.4-0.1c1.1-2.2,23.5-19.4,26-21.3c15.4-11.8,23-18.1,28.1-23.2
			c2.7-2.8,15.4-18.7,18.1-22.7c5-7.5,14-23.2,16.1-28c3.9-8.8,16.2-39.7,16.7-41.2c0-1,1.5-5.3,2.2-7.1c1.1-3.1,2.9-8.9,4-12.7
			c0.8-2.9,2.3-7.6,2.9-8.6c0.3-0.7,2.3-6.8,4.8-15.9c7-25,19.9-53.4,30.6-67.6c2.8-3.7,27.1-26.5,29.5-26.5l1.2,0.1v1.4
			c0,0.3,0,0.9-5.8,14.9c-5.5,13.3-16.1,33.1-20.1,38c-2.3,2.7-14.1,23.3-17.6,30.6c-3.1,6.6-12.2,29.1-16.3,40.2
			c-1.5,4.1-7.3,19.2-13,33.7c-5.6,14.2-11.2,29.5-12.3,33.3c-0.1,0.3-2.2,7.4-3.4,8.7c-0.3,0.4-1.6,3.2-2.9,7.2
			c-2.4,7.1-10.5,21.6-16.6,30c-16.7,22.6-16.9,22.9-22.7,32.1c-5.7,9.1-22.4,29.1-29.3,35.1c-3.7,3.2-6.7,5.9-7.2,6.5
			c-1.2,1.2-7.1,6.1-21.2,17.4c-6.6,5.3-10.6,9.3-16.4,16.5c-1.7,2.1-8.9,15.8-12,23.1c-3,7.3-7.5,20.8-12,36.1
			c-3.5,11.9-6.4,20.5-13.1,38.5c-1.8,4.8-3.1,8.6-3.7,10.8c2.8-1.8,8.7-6.7,14.5-12.7c3.7-3.8,14-15.6,22.9-26.4
			c16.5-19.9,21.3-24.7,36.4-37.1c25.5-21,35.5-31.9,39.6-43.2c5.2-14.4,8-22.4,9.6-27.4c0.7-2.2,3.5-9,6.5-15.4
			c6-12.9,9.5-21.8,13.5-34c3.3-10.2,3.7-10.2,4.6-10.2l0.6,0l0.3,0.5c0.4,0.7,0.5,1.5-0.3,6.9c-0.6,3.8-1.3,9.3-1.6,12.2
			c-1.1,12.1-5.2,32.7-8.4,41.7c-0.4,1.1-1.6,5.3-2.6,9.1c-4.1,15.2-10.5,31.7-15.9,41c-4.7,8-13,18.7-24.7,31.8
			c-11.3,12.5-16.1,18.2-19.8,23.2c-2,2.7-4.6,6.1-5.8,7.7c-4.5,5.6-11.9,21.4-14.1,30.3c-0.2,0.6-1.5,5.6-3,11
			c-5.3,19.3-12.7,55.6-15.2,74.6c-0.7,5.4-2.7,16.6-4.3,24.9c-3.3,16.6-3.8,27.1-2.1,40.3c1.4,10.5,0.7,23.7-1.7,33.6
			c-1,4.2-2.4,10.7-3.1,14.6c-0.7,4-1.7,8.5-2.2,10.3c-0.5,1.5-1.1,4.4-1.3,6.2c-0.3,1.9-0.9,5.5-1.4,8c-0.5,2.3-1.1,5.4-1.3,6.8
			c-0.2,1.4-1.2,6.6-2.1,11.5c-0.9,4.8-1.9,10.9-2.2,13.4c-0.1,0.9-0.1,1.5-0.1,1.9c1.5-1.4,4.5-5.7,5.8-7.5c3-4.3,6.3-8.8,7.3-10
			c0.9-1.2,4.8-6.5,8.5-11.9c3.8-5.4,7.9-11.2,9.2-13c1.3-1.8,3.7-5.7,5.5-8.7c1.3-2.2,3.6-6,4.3-6.3c1.3-1.4,13-21.8,15.6-27.5
			c3.2-7,7.6-18.5,8.8-22.7c0.1-0.3,0.4-1.3,0.7-2.3c0.7-2.1,3.8-18.1,4.3-21.9c0.7-6,7.4-46.8,8.7-53.3c0.2-1.2,1.1-5.9,1.8-10.3
			c2.4-14.1,6.2-33.6,9.6-49.5c4-18.4,4.6-22.2,6-37.2c0.8-8.3,1.6-16.1,1.8-17.8c0.6-4.3,4.7-18.1,6.8-23.4
			c0.8-1.9,1.2-3.1,1.3-3.6c-0.1-0.4-0.1-1.2,1.4-3.4c0.9-1.3,5.2-11.6,6.1-15c0.1-0.3,0.8-2.3,1.5-4.4c0.7-2,1.6-4.7,1.9-5.8
			c0.3-1,0.7-2.5,1.8-2.5c0.1,0,0.2,0,0.3,0l0,0c-0.2-0.3-0.6-0.9-0.1-3.4c0.4-1.9,1-2.8,1.9-2.8l0.6,0.1l0.3,0.4
			c1,1.2,0.2,3.9,0,4.5c-0.2,0.5-0.6,1.9-1.7,1.9l-0.2,0c0.7,1.3,0.9,5.6,1.1,19.2c0.1,9.8,0.7,29.3,1.4,43.4
			c1.2,25.9,0.9,33.1-1.8,55c-0.4,3.6-1,8.7-1.3,11.4l-0.8,7.6c-2.8,24.8-3,26.8-3,43.2c0,19.4,0.2,21.1,4.7,45.2
			c6.2,32.9,12.7,60.9,17.9,76.8l3.5,10.6l-0.6,12.3c-0.3,6.8-1.3,15-2.2,18.8c-1.6,6.4-2.2,10.9-3,21.9c-0.2,3.3-0.6,7.5-0.8,9.3
			c-0.2,1.8-0.8,10.5-1.3,19.5c-1.1,18.9-2.6,33.4-5.3,50.1c-2.8,17.2-2.8,40.7-0.1,52.3c2.1,9.1,6.6,25.8,7.9,29.3
			c0.5,1.2,1.3,4,1.9,6.1c0.6,2.1,2.8,9.9,4.9,17.3c2.1,7.4,4.5,15.8,5.2,18.5c1.1,4.1,7.3,16.7,10.1,21.4c0-1.1,0.1-2.6,0-4.3
			c-0.3-12.8,0.7-25.1,4.9-57c0.3-2.6,4.4-27.6,5.2-31.5c2-10.8,3.1-19.4,3.6-27c0.5-9.5-0.5-16.7-5.2-34.8
			c-1.1-4.4-3.3-15.2-4.8-24.1c-1.5-8.9-3.9-22.2-5.3-29.6c-1.5-7.5-2.9-15.1-3.1-16.9c-0.2-1.8-1.1-7.8-2-13.3
			c-1.5-10-1-10.7-0.7-11.2l0.4-0.5h0.5c3.1,0,17.4,46.4,18.5,50.4c10.3,36.2,12.5,45.2,14.8,59.9c2.2,14,5.1,26.1,7.7,32.4
			c0.4,1.1,4.4,11.2,8.7,22.2c4.3,11.1,9.5,22.9,11.6,26.4c2.1,3.5,8.9,12.9,15.3,21c3.8,4.9,6.9,8.9,9.6,12.4v-5.1
			c-3-3.9-6.8-8.9-10.3-13.5c-5.9-7.7-11.9-16.1-13.2-18.6c-0.1-0.2-10.2-20.4-8.3-22.9l0.6-0.6h0.5c0.7,0,1.4,0.7,1.4,2
			c0.4,2.1,10,17.6,14.6,22.3c5.6,5.8,10.5,11.8,14.8,17.9v-5.2c-2.9-3.9-5.5-7-7.9-9.2c-11.2-10.3-22.6-30.8-29.7-53.6
			c-1.3-4.2-3.1-9.6-3.9-11.8c-1.1-3.2-1.2-4.1-0.8-4.8l0.4-0.7h0.6c0.7,0,1.3,0,5.2,8c5.6,11.5,13.4,26,16.2,30.5
			c3.9,6.2,13.5,19.3,19.8,27.3V885c-8.9-11-11.6-14.7-17.1-23.2c-1.4-2.1-3-4.6-3.5-5.3c-0.7-0.9-3.2-5.6-5.2-9.6
			c-2.2-4.4-6.1-12-8.6-16.7c-2.5-4.8-5.7-12-7.1-15.9c-10.1-29.3-9.8-29.8-9.4-30.6l0.4-0.7h0.6c0.6,0,0.9,0,5.5,7.9
			c4.2,7.2,18.8,25.5,29.5,36.9c3.6,3.9,8.8,10,14.9,17.8V838h-0.4c-0.3,0-0.9,0-2.4-2.5c-0.9-1.5-1.3-2-0.9-2.9l0.2-0.4h-1
			c-1.2,0-4.1-2.4-4.7-3.7l-0.4-1l0.3-0.7l0.4-0.8h0.7c0.2,0,0.7,0,2.2,1.2c2.8,2.3,2.8,2.9,2.8,3.5l-0.1,1.2l0,0h0.7
			c0.5,0,0.8,0.3,1.8,1.3c0.4,0.4,0.7,0.7,1,1v-5c-2.6-3.1-2.6-3.3-2.3-4.3l0.3-0.9h0.8c0.3,0,0.6,0.1,1.2,0.5v-5.5
			c-1.8-1.5-3.4-2.9-3.8-3.8c-1.9,0-15.9-12.8-18.4-15.7c-3-3.4-7.9-8.4-16.5-16.5c-8-7.7-19.4-22.3-22.5-29.1
			c-5.6-12.1-6.5-14.1-8.3-19.4c-1-2.9-4.7-12.1-8.1-20c-15.7-37.3-22.3-55.9-26.3-73.6c-7.7-34.1-15-71.2-15.4-77.8
			c-0.7-11.9-0.5-30.3,0.4-39.4c2.8-28.6,3.2-31.1,4.6-32.1l0.2-0.2l-0.3-0.4c-0.7-0.9-0.7-2.5-0.3-3.7c0.4-1.2,0.9-1.4,1.4-1.4
			c0.9,0,1.3,0.8,1.4,2.5c0.1,1.8-0.4,2.3-0.5,2.5l-0.5,0.5h-0.1l0.2,0.3c0.5,0.6,1.1,1.4,0.5,31.2c-0.7,39.3-0.6,39.9,9.7,66.4
			c8.3,21.3,10.8,28.6,15,43.6c4.2,15,6.8,21.5,12.1,30.2c5.3,8.8,5.3,9.6,5.3,9.8c0.1,0.2,0.4,1,1,1.8c2.3,3.2,12.7,25.5,13.7,29.4
			c0.2,0.9,0.4,1.5,0.6,1.9c0.5-1.4,1.3-5,2.5-13.2c2.7-18.8,0.3-99.2-3.7-119.5c-3.1-16.1-11-44.5-15-54.4
			c-6.6-16.1-9.6-22.5-13.3-28.4c-13.7-22.2-24.7-57.6-26.1-84c-0.4-8.5,0.1-9.9,0.6-10.7l0.6-0.6h0.5c1.1,0,1.9,1.2,3.1,4.9
			c0.7,2.2,2.6,7.8,4.1,12.3c2.8,8.5,5.7,18.4,8.8,30.5c4,15.7,6.2,23.4,7.8,27.4c3.9,9.9,11.7,23.2,19.9,33.9
			c13.4,17.6,14.8,20,20.5,37.4c4.6,13.9,12,32.9,13.6,35.3c4.2,6.4,8.1,11.9,12.7,17.9c2.9,3.7,5.8,8,6.6,9.8
			c0.6,1.3,1.2,2.1,1.4,2.4c0.5,0.2,1.6,1.3,4.6,6.2c1.7,2.7,3.6,5.5,5.4,8.1v-7.5l-0.2,0.3l-0.8,0c-0.4-0.1-1.1-0.2-6.8-8.9
			c-2.9-4.5-6.9-10.2-8.7-12.6c-11.8-15.4-13.4-18.8-25.2-51.7c-7.1-19.9-9.2-23.8-20.2-37.8c-15.9-20.2-21-30.9-27.1-57
			c-1.5-6.2-3.6-14-4.8-17.5c-0.7-2.1-2.3-7.1-1.9-8.6l0.4-1.1h0.8c0.4,0,1.4,0,5.5,7.1c4.5,7.9,17.8,25.1,24.8,32.1
			c9.7,9.6,21.8,26.2,28.2,38.6c7.7,14.8,12.7,29.4,16.7,49c0.5,2.3,9.3,31,10.7,34.5c0.5,1.2,1.8,5.7,2.9,9.9
			c1.1,4.1,3.1,10.9,4.3,14.9c0.6,2.1,1,3.6,1.3,4.7v-9.7c-1-3.5-2.2-7.4-3-10.5c-3.2-11.3-6.5-22.2-8.3-27c-1.6-4.4-10-36-10-38.3
			c0-1.7-3.1-10.7-8.8-22.5c-9-18.7-12.8-24.2-30.7-45.4c-0.8-0.9-1.9-2-2.6-2.5c-3-2.1-11.6-12.3-16.3-19.1l-0.5-0.7
			c-5.7-8.4-5.7-8.4-13.2-21.5l-0.7-1.2c-9.5-16.5-11.3-20.5-15.2-33.4l-3.2-10.6l0.2-18.2c0.2-16.8,0.4-18.8,2.7-26.8
			c1.5-5.1,2.4-9.6,2.4-10.5c0-1.7,1.1-9.8,2.1-16.7c1.1-7.6,3-20.5,4-28.3c2.1-14.9,2.2-15.3,3.3-15.3c0,0,0.5,0,0.5,0l0.3,0.3
			c0.4,0.5,0.6,0.7,1.2,14.8c0.7,17.7,2.1,25.9,2.9,27.1c0.6,1,1,2.5,0.7,3.6c0,1,0.8,5.1,2.2,10.8l2.7,11l-0.7,18.1
			c-1.3,32.7-1.1,38.1,1.7,48.4c7.5,27.7,18.7,45,36.4,56.2c4,2.5,9.3,7.1,14.6,12.5c3.4,3.5,14,7.6,23.2,9
			c3.6,0.5,7.8,1.9,12.1,3.7v-4.2c-3.7-1.4-7.4-2.5-9.2-2.5c-4.4,0-15.4-3.2-19.9-5.8c-2.3-1.3-5.9-4.2-7.9-6.5
			c-1.9-2.1-7.3-6.4-11.9-9.6c-17.8-12.2-30.8-34.1-36.5-61.6c-1-4.6-0.7-29,0.6-31.5c0.1-0.7,0.3-5.6,0.4-13.1
			c0-9.9,0.1-11.8,1.7-11.8c1.3,0,1.6,1,3.9,11.1c2.6,11.4,6.8,28,8.1,31.7c0.6,1.8,2.7,8,4.5,13.7c1.9,6.1,4,11.6,4.8,12.9
			c0.1,0.1,1.8,3.2,1.7,4.4c0.7,2,13,20.4,18.8,27.9c4,5.1,17.7,17.5,19.1,18c0.9,0,1.7,0.7,2,1.6c0.8,1.2,8.3,6.8,12.3,8.6
			c1.9,0.8,5,2.1,7.5,3v-3.7c-0.1,0-0.3-0.1-0.4-0.1c-7-2.3-15.1-7.7-25.5-17.2c-10.5-9.5-14.6-13.8-16.9-17.8
			c-1.1-1.9-3.7-5.7-11.5-17c-4.5-6.5-11.3-25.9-18.3-52.1c-4.4-16.6-17.7-74.5-16.1-77.3l0.4-0.6h0.6l0.6,0.1l0.3,0.4
			c1,1.3,9.3,34.4,11.8,45c4.8,20.2,10.7,37,17.6,50.2c1.3,2.4,4.2,8,6.6,12.4c4.8,8.9,10.4,14.9,19.7,20.9
			c14.9,9.7,19,13,27.3,21.8c1.3,1.4,2.6,2.9,3.8,4.3v-4.9c-7.6-9-14-14.1-29.3-24c-13-8.4-14-9.7-25.9-33
			c-4.4-8.6-8.8-19.8-12-30.6c-1.5-5-3.1-10.1-3.5-11.3c-0.5-1.4-2.3-9.2-3.9-15.9c-1.7-7.5-5.3-21.6-7.9-31.4
			c-6.5-23.8-8.3-32.9-9.6-48.4c-0.6-7.2,3.8-21.3,16.6-54.2C181.2,158.9,186,146.2,188,140.8 M185.8,92.1c-1,2.8-3.2,9.9-4.9,16
			c-1.7,6.2-4.3,14.2-5.7,17.9c-1.4,3.8-2.3,6.6-2.4,6.8c0,3.4-9.1,28-13.8,38.6c-0.5,1.2-2.1,5-3.5,8.6c-1.4,3.6-3.3,8.3-4.3,10.6
			c-2.1,5-13.5,25.1-16.3,28.6c-1,1.3-3.5,4.7-5.4,7.4c-5.4,7.6-19.3,21.6-28,28.2c-4.2,3.2-9.3,7.3-11.2,8.9
			c-2.9,2.6-3.7,2.8-4.2,2.8l-0.9-0.1l-0.3-0.9c-0.3-1-0.6-1.8,6.2-10c9.9-12,16.6-21.7,25.7-37.1c10.2-17.3,15.1-26.9,24-47
			c11.2-25.3,15.6-34.9,19.2-41c1.1-1.9,1.7-3.3,1.8-3.3c0-0.4,0-1.2,5.9-11.9c3.3-6,5.3-10.1,5.5-10.5c0-1.3,0.8-2.4,1.6-2.4
			c0,0,0,0,0.1,0c0.2-0.1,0.9-0.9,1.7-2.5c5.3-10.4,8.5-15.7,9.6-15.7l0.5,0l0.3,0.4C187.4,85.4,188,86.1,185.8,92.1 M198.3,52.2
			c-2,3.5-5.4,10.4-7.5,15.1c-2.2,4.8-5.5,11.5-7.3,14.9c-10.1,18.2-11.3,20.3-11.8,20.7c-1.1,1.5-13.7,25.3-14.4,27.1
			c-0.2,0.7-1.5,3.4-2.6,5.6c-2.2,4.4-5.7,12-8.5,18.9c-0.2,0.4-1.7,4-2.2,4.7c-0.2,0.2-0.7,1.3-1.4,2.8c-3.4,7.6-4.7,10.5-7.7,17.2
			c-2.8,6.4-5.2,11.2-10.2,20.5c-0.6,1.2-2.5,4.8-4.3,8.1c-1.8,3.4-4.5,8-6.3,10.5c-1.6,2.2-2.7,4.1-2.8,4.2c0,1.3-1.5,3.4-1.9,3.8
			c-0.8,1-3.3,4.6-5.4,7.8c-0.2,0.3-23.3,31.9-25,31.9l-0.7,0l-0.3-0.8c-0.3-0.7-0.3-1.3,1.2-4.2c4-7.6,9.8-21.6,14.1-33.9
			c0.9-2.6,4-12.7,6.6-22.1c6.8-23.9,10.3-33.5,15.4-42.9c1.4-2.5,2.2-4.6,2.3-4.9c0-1.3,0.7-2.3,1.5-2.3c0.1,0,0.2,0,0.3,0
			c0-3.9,19.8-29.8,27.4-39.5c20.5-26,22.2-28.5,31.4-44.3c8.3-14.2,13.6-21.5,20.3-27.6c1.9-1.8,2.5-2.2,3.2-2.2l0.8,0.1l0.3,0.8
			C203.2,43.4,202.9,44.1,198.3,52.2 M125.6,307.5c-1,2.1-2.6,5.7-3.3,7.7c-2.5,7-4.8,13.3-5,14.1c0,0.3,0,1-4.5,12.4
			c-6.3,16.3-13.7,24.7-41.2,47.5c-13,10.8-20.2,17.9-27.6,27.2c-6.3,7.9-17.1,21.2-18.7,21.2l-0.8-0.1l-0.3-0.9
			c-0.2-0.7-0.3-1.6,1.9-4.5c3.2-4.3,11.2-18.2,11.7-19.8c0-1.2,0.6-2.2,1.4-2.5c0.8-1,3.9-5.8,8.1-13.3
			C57.8,378,62.6,371.6,72.8,362c4.7-4.4,8.4-7.9,8.7-8.3c0.5-0.6,4.6-4.7,4.6-4.8c4.5-4.5,8.8-9.7,14.5-17.4
			c3.5-4.7,5.4-7.8,12.8-20.5l8.6-14.7c3.3-5.7,8.3-14.3,11-19.3c5.3-9.6,5.5-9.6,6.2-9.6l0.7,0l0.3,0.7
			C141.3,270.9,127.9,302.8,125.6,307.5 M144.8,251.4c-3.7,6.8-28.1,49.2-31.9,55.4c-2,3.3-5.9,9.7-8.6,14.1
			c-8.2,13.6-17.9,24.8-34.6,39.9c-8,7.3-15,17.1-28.8,40.5c-28.3,48.1-28.9,48.1-29.4,48.2l-0.1,0l-0.7,0l-0.3-0.6
			c-0.3-0.6-0.5-0.9,1-5.4c0.7-2.2,2.6-7.8,4-12.2c1.4-4.5,3.2-9.7,3.8-11.4c0.6-1.7,2.5-8,4.3-14c6.7-22.7,14.7-40.3,22.6-49.3
			c3.8-4.4,6.5-6.7,20.4-17.9c3.8-3,8.1-6.6,9.6-7.8c5.6-4.9,12.3-10.9,15.9-14.3c5.8-5.4,20.4-24,27.4-34.8
			c3.5-5.4,8.9-13.2,12.1-17.4c3.1-4.1,7.6-10,9.7-13c2.7-3.7,2.9-3.8,3.5-3.8l0.7,0l0.3,0.8C146.1,249.1,145.7,249.8,144.8,251.4
			 M111.7,415.5c-1.4,5-2.9,15.8-3.9,28.9c-1,12.7-1.5,16.1-3.5,24.2c-0.9,3.5-2.1,8.9-2.6,11.8c-0.6,3-1.5,7.7-2.2,10.3
			c-0.6,2.6-1.8,8.6-2.6,12.9c-0.8,4.5-2.6,14.1-4,21.2c-1.4,7.1-2.9,15.5-3.5,18.4c-0.5,3-1.2,6.4-1.4,7.6
			c-0.2,1.2-0.7,4.6-1.2,7.6c-0.5,3-1.2,7.6-1.7,10.3c-0.4,2.6-1.1,7-1.3,9.7c-0.3,2.8-1.1,7.6-1.7,11c-0.6,3.3-1.7,8.8-2.3,12.4
			c-2.4,14.1-9.6,31.7-20.8,51.1c-3.7,6.4-7.6,12.9-8.9,14.7c-15.1,21.3-16.9,24.7-17,24.9c0,1.4-0.7,2.1-1.4,2.1l-0.7-0.2l-0.3-0.4
			c-1-1.3,0-3.7,1-5.5c3.2-5.8,17.1-43,17.4-45.5c0-0.2,0-0.9,2.2-6.9c1.1-3.1,2.9-9.1,4-13.2c1.1-4.1,2.2-8.4,2.4-9.3
			c0.2-0.9,0.5-2,0.6-2.6c3.4-17.8,3.9-20.7,5.2-30.8c1.7-13.6,3.5-23.5,6.2-34.2c1.7-6.7,4.9-20.9,7.3-31.7
			c3.9-18.2,8.9-37,11.8-44.8c0.7-1.8,2.4-7.3,3.9-12.3c1.5-5.1,3.2-10.7,3.9-12.5c1.2-3.4,2.4-7.6,2.7-9.8c0.3-1.8,9.6-26,12.3-26
			l0.5,0l0.3,0.4C112.7,409.8,113.2,410.4,111.7,415.5 M116.5,388.9c-3.5,7-5.5,11.3-5.9,12.6c0,0.8-0.6,2.2-2.9,6.3
			c-1.5,2.7-2.5,4.9-2.6,5.1c0,1-1.2,3.3-2.3,5c-2.6,4.2-4.8,10.6-8.7,24.3c-0.1,0.5-3.2,11.5-4.2,12.7c-0.2,0.3-0.5,1-0.5,1.5
			c0,1.3-1,4.6-1.7,6.6c-2.1,6-10.3,34.8-10.8,38c-0.2,1.6-1,5.2-1.7,8c-0.7,2.7-1.9,8.2-2.8,12c-0.8,3.8-3.2,13.9-5.4,22.7
			c-4,16.3-4,16.3-5.8,29.7c-0.7,5.4-1.7,12.8-2.2,16.3c-0.9,6.8-4.2,23.8-5.2,26.8c-0.3,0.9-1,3.6-1.6,5.9
			c-0.9,3.8-4.7,15.8-7.3,22.9l-2.5,7c-2.7,7.8-8.7,23.3-10.1,26.3c-0.7,1.5-2.8,6.2-4.8,10.5c-3.9,8.6-4.1,8.6-4.8,8.6l-0.6,0
			l-0.3-0.6c-0.3-0.5-0.5-0.9,0.8-6.4c1.1-4.5,6.1-27.1,7.7-35c0.3-1.5,0.8-3.6,1.1-4.5c0.3-0.9,0.5-1.7,0.6-2l0.7-3.4
			c1.9-8.7,2.1-17.4,0.9-28.9c-0.7-6.7-1.4-13.7-1.6-15.5c-0.4-4.1,1.5-17.7,3.9-27.5c0.9-3.7,1.9-8.8,2.1-11.4
			c0.3-2.8,0.9-7.2,1.4-9.9c0.5-2.6,1.1-6.7,1.3-9.1c0.9-7.7,11.4-58.5,14.2-68.7c3.7-13.2,8.3-25,12.5-32.3
			c3.9-6.7,19.7-26.7,29.1-36.9c3.3-3.6,9.4-10.7,13.6-15.9l7.6-9.5l1.8,1.8L116.5,388.9z M206,830.8c0.2-0.4,0.6-0.7,1.1-0.7
			l0.6,0.1l0.3,0.2c0.8,0.7,1.3,1.8,1.3,2.9c0,2.3-1.2,2.4-1.4,2.4c-1.1,0-1.6-1.5-2-2.6C205.8,832.8,205.5,831.7,206,830.8
			 M230.2,812.2l0.3-1h0.8c0.3,0,1.2,0,6.7,6.5c4.2,4.9,4.1,5.1,3.8,6.1l-0.3,0.9h-0.8c-0.5,0-1,0-6.8-6.4
			C229.8,813.7,230,813,230.2,812.2 M160.8,710l0.3-0.4h0.5c1,0,1.3,0,3.3,13c1.1,6.8,3.2,19.6,4.8,28.5c1.6,9,3.9,21.6,5.1,28.2
			c2.4,13.1,2.8,15,6.2,29.2c3.7,15.5,3.9,25.5,0.5,46.4c-1.5,9.6-3.1,19.4-3.6,21.8c-0.4,2.3-1,5.9-1.3,7.8
			c-0.3,1.9-1,6.9-1.7,10.9c-1.1,6.8-2.9,22.9-3.3,29.7c-0.1,2.2-0.2,4.2-1.6,4.2c-1.3,0-1.7,0-3.4-17.2c-1.9-19.9-2-42.1-0.1-57.9
			c0.5-4.5,1.5-12.1,1.9-12.9c0.6-1.5,1.5-14.9,1.4-27.9c-0.1-12.2-0.2-13.4-3.5-25.6c-3.4-12.6-4.9-21.4-6-36.2
			C160.5,749.5,159.5,711.6,160.8,710 M163.7,788.9c3.7,10.9,4.8,31,2.6,44.9c-2.3,14.5-4,34.8-4,47.3c0,8.6,0.3,15.7,0.4,16.7
			c0.2,1.5,0.6,7.1,0.9,11.6c0.4,7.3,0.4,7.6-0.1,8.3l-0.4,0.5h-0.5c-1,0-1.3-1-1.8-3.1c-0.6-2.2-1.3-3.9-1.4-4.2
			c-0.6-0.7-1-2-1-3.2c-0.1-0.8-1.5-6.1-3.9-13.8c-4.8-15.3-8.9-31.4-10-39c-0.8-5.6-1.1-26.4-0.4-30.9c0.2-1.2,0.6-4.8,1-8.1
			c0.4-3.3,0.7-6.3,0.8-6.6c0-0.3,0.3-2,0.7-3.9c1.6-8.8,4.7-40.6,5.8-60.8c1.4-24.4,1.7-24.4,3.1-24.4c1.3,0,1.5,0.6,1.6,10.7
			C157.4,756.7,159.6,776.7,163.7,788.9 M142.6,438.7l0.4-0.5h0.5c0.8,0,1.5,0.7,2.1,4.3c0.3,2.1,0.9,3.8,1,4.1
			c0.6,1,2.2,6.5,2.8,8.5c3.1,11.2,10.9,28.7,17,38.1c12.2,18.9,25.7,63.2,29.5,96.7c0.2,1.5,0.6,7.6,0.9,13.6
			c0.3,6,0.7,13.3,0.9,16.3c0,0.5,1.6,54.4,0.4,56l-0.4,0.5h-0.5l-1-0.1l-0.2-1.1c-0.2-1.5-2.5-13.4-5.1-26.5
			c-2.6-13.2-5.7-30.8-6.9-39.3c-2.8-19.8-6.3-34.2-12.9-53.3c-5.6-16.2-9.5-31.1-16.4-61.5c-2.2-9.5-5.5-22.9-7.3-29.8
			C140.9,440.9,142.1,439.3,142.6,438.7 M142.5,464.6l0.4-0.5h0.5c1,0,1.3,0.9,2.1,3.4c2.2,7,6.5,24.2,8.8,35.4
			c4.5,21.5,10.4,43.4,15.5,57c2.3,6.1,2.3,6.8,2.3,6.9c0,0.3,0.4,1.6,1.1,3.6c3.7,10.2,7.7,30.7,9.8,49.9c0.2,2.1,0.6,4.4,0.9,5.1
			c0.3,1.1,1.1,5.4,1.6,8.9c0.6,3.9,2.6,14.8,4.6,24.4c1.9,9.6,3.8,19.4,4.1,21.8l0.5,4.3l-2.1,1l-2.7-5.4c-1.5-3-3.8-7.3-5.2-9.7
			c-10-17.3-12.5-23.2-17.9-42.1c-3.1-10.9-11.5-33.7-16.2-44.3c-2.2-4.8-4.8-11.8-5.9-15.5c-2.1-7.3-2.2-11.1-1.9-59
			c0.1-12.2-0.1-27.5-0.3-34.1C142,465.8,142,465.4,142.5,464.6 M168.8,313.6c1.4,0,1.4,2.2,1.4,3.1c0,0.9,0,3.1-1.4,3.1l-1-0.3
			l-0.3-0.9c-0.3-1.1-0.3-2.7,0-3.7l0.5-1.2H168.8z M163.3,289.2c1.1,0,1.4,1.4,2.1,4.3c0.6,2.7,1.4,6.1,1.8,7.5
			c0.4,1.5,0.5,2.4,0.1,3.1l-0.4,0.6h-0.6c-0.5,0-0.9-0.4-1.2-0.7c-0.7-0.9-1.6-3.4-2.1-5.3c-0.6-2.2-1-5.3-1-7
			C162,291,162,289.2,163.3,289.2"/>
	</g>
</g>
</svg>
