<?xml version="1.0" encoding="utf-8"?>
<!-- Generator: Adobe Illustrator 23.0.1, SVG Export Plug-In . SVG Version: 6.00 Build 0)  -->
<svg version="1.1" id="Layer_1" xmlns="http://www.w3.org/2000/svg" xmlns:xlink="http://www.w3.org/1999/xlink" x="0px" y="0px"
	 viewBox="0 0 78.6 183.7" style="enable-background:new 0 0 78.6 183.7;" xml:space="preserve">
<style type="text/css">
	.st0{opacity:0.75;}
	.st1{clip-path:url(#SVGID_2_);fill:#AF8D33;}
</style>
<g class="st0">
	<g>
		<defs>
			<rect id="SVGID_1_" width="78.6" height="183.7"/>
		</defs>
		<clipPath id="SVGID_2_">
			<use xlink:href="#SVGID_1_"  style="overflow:visible;"/>
		</clipPath>
		<path class="st1" d="M41.9,99.8c3.4-10.6,11.4-34.1,13.6-39.9c0.5-1.4,2.4-6.5,4.2-11.5c1.8-5,4-10.6,4.8-12.5
			c0.8-1.9,2.9-7.4,4.7-12.3c1.8-5,4.4-11.5,5.7-14.5c1.2-2.9,2.8-6.8,3.6-9.1c-6.3,5.2-17.2,16.1-21.5,21.5
			c-2.7,3.5-7.4,9.1-10.3,12.6c-14,16.5-17.4,21-17.7,21.6c-0.2,1.1-1,1.9-1.6,2c-0.4,0.3-2.7,3-16.6,24.1c-1.9,2.9-3.3,5.6-3.5,6.2
			c-0.3,1.2-0.9,2.5-1.6,3.1c-0.6,0.6-2.9,5-5.6,10.5v5.2c1.6-3.2,3.5-7,5.1-10c2.6-4.9,4.5-8.6,4.7-9.1c2-4.3,18.4-27.2,27-37.8
			C42.4,43,48.1,36,49.4,34.3c2.1-2.8,2.9-3.2,3.6-2.9l0.7,0.3l0.2,0.7c0.2,0.6,0.4,1.4-2.5,5.8c-3.9,6.1-15.6,28.7-20.2,38.9
			c-4.9,11-15.5,36.9-20.6,50.3c-2.9,7.8-7.2,17.8-10.6,25.3v5.5c5.4-11.6,8.5-19.3,15.2-36.6c2.7-6.8,5.5-14,6.4-15.9
			c0.8-1.9,2.4-5.6,3.4-8.3c3.9-9.8,7.8-19,10.9-25.2c1.8-3.7,3.3-7,3.6-7.7c1.1-2.7,9.7-18,15.8-28.1l0.7-1.3
			c8.2-13.7,8.2-13.7,9.3-13.4c1,0.3,1,1.7,1,2.6c0,1.5-0.9,4-1.8,5.7c-0.8,1.7-3,7.1-4.7,12c-1.8,5-4.6,12.6-6.2,17
			c-1.6,4.4-3.6,10-4.4,12.5c-0.8,2.5-2.3,6.5-3.3,8.9c-0.9,2.2-2.1,6.1-2.6,8.3c-0.6,2.5-2.3,7.7-3.7,11.6
			c-1.4,3.7-3.2,8.7-3.9,10.9c-1.9,6-8.2,20.8-10.8,25.1c-1.2,2-4.6,7.3-7.7,11.9c-3,4.6-6.5,9.9-7.8,11.9C8,162.7,4,170.2,0,177.9
			v5.8c6.1-11.8,13.1-24.1,17.9-31.2C29.2,135.6,33.5,126.3,41.9,99.8"/>
	</g>
</g>
</svg>
