<?xml version="1.0" encoding="utf-8"?>
<!-- Generator: Adobe Illustrator 23.0.1, SVG Export Plug-In . SVG Version: 6.00 Build 0)  -->
<svg version="1.1" id="Layer_1" xmlns="http://www.w3.org/2000/svg" xmlns:xlink="http://www.w3.org/1999/xlink" x="0px" y="0px"
	 viewBox="0 0 507.4 430.4" style="enable-background:new 0 0 507.4 430.4;" xml:space="preserve">
<style type="text/css">
	.st0{opacity:0.75;}
	.st1{clip-path:url(#SVGID_2_);fill:#AF8D33;}
	.st2{clip-path:url(#SVGID_4_);fill:#AF8D33;}
	.st3{clip-path:url(#SVGID_6_);fill:#AF8D33;}
	.st4{clip-path:url(#SVGID_8_);fill:#AF8D33;}
</style>
<g class="st0">
	<g>
		<defs>
			<rect id="SVGID_1_" y="319.8" width="431.1" height="110.6"/>
		</defs>
		<clipPath id="SVGID_2_">
			<use xlink:href="#SVGID_1_"  style="overflow:visible;"/>
		</clipPath>
		<path class="st1" d="M431.1,320.2c0,0-0.3-0.4-1.4-0.4c-1.3,0-3.1,0.5-5.4,1.3c-2.5,1-12.4,2.5-22.5,3.5c-10,1-18.9,1.9-20.2,2.1
			c-1.3,0.2-5,0.6-8.3,1c-7,0.9-18.7,3.8-29.1,7.4l-16,5.5c-11.3,3.9-16.6,4.5-40.3,4.5c-23.7,0-30.6-0.7-46.5-4.5
			c-9.9-2.4-15.8-3.4-20.5-3.4c-3.4,0-6.4,0.5-9.6,1.7c-8,3-14.2,7.9-30.1,23.9c-18.7,18.7-27.7,26.2-45.8,38l-15.6,10.1l-18.7,1.5
			c-10.2,0.8-20.4,1.7-22.7,2L64,416.3c-19.3,2.3-43.8,7.8-64,14.1h13c1.8-0.5,3.6-0.9,5.2-1.2c1.4-0.3,5.5-1.2,9.1-2.1
			c29.3-7.3,82.3-12.8,138.4-14.3l25.9-0.7l7.9,3.6c4.8,2.2,14.8,8,25.6,14.6h27.3c-3-0.9-6.1-1.7-9.7-2.3
			c-2.1-0.4-31.4-7.5-31.4-11.7c0-1.7,1.6-1.7,2.3-1.7c3.7,0,14.2,1.7,22.4,3.2c11.6,2,30.5,7.1,47.2,12.6c0,0,0,0,0,0h12.6
			c-33.4-11.5-63.4-18.5-89.4-20.7c-4.8-0.4-14.2-0.6-25.8-0.6c-17.6,0-35.2,0.5-43.6,1.2l-4.8,0.4l-0.6-2.7l7.9-5.1
			c7.7-5,19.9-14.7,20.8-16.1c0.6-1,2.7-2.3,2.8-2.4c0.9-0.6,6.8-6.1,14-13.1c12.3-12,13.4-12.2,13.7-12.2h0
			c0.4-0.1,2.8-1.1,5.9-2.7c3.5-1.8,5.3-2.6,8.8-2.6c1.3,0,2.9,0.1,4.9,0.3c3.9,0.3,8.4,0.8,9.3,1.1c0.7,0.2,2.8,0.8,4.6,1.2
			c2,0.5,4.4,1.3,5.5,1.9c0.9,0.5,3.4,1.5,5.4,2.1c2.2,0.7,5.6,2.2,7.6,3.3c9.3,5.4,26.7,11.2,46.7,15.5c4.8,1.1,9.5,2.1,10.5,2.4
			c0.9,0.2,3.2,0.6,5.1,0.9c1.8,0.2,4.2,0.7,5.1,1.1c2.4,1.1,15.1,2.2,26,2.2c1.3,0,2.6,0,3.9,0c13.5-0.3,19.1-1.8,31.7-8.2
			c8.7-4.5,16-10.7,26-22.2c6.4-7.4,23.3-24.2,33.1-32.9c0.1-0.3,0.2-0.8,0.3-1.6C431.1,320.6,431.1,320.3,431.1,320.2 M243.7,346.7
			c0.2-1.4,1.5-1.5,2-1.5l0.3,0c1.1,0,1.7,0.4,2,1.2l0,0.1c0.3-0.1,0.5-0.1,0.8-0.1c1.1,0,3.1,0.2,5.4,0.5
			c3.5,0.5,19.1,0.9,34.6,0.9h4c25.4,0,25.7-0.1,42.9-6.2l1.4-0.5c9.6-3.4,17.6-6,23.1-7.5c3.5-1,20.2-3.6,27.5-4.3
			c3.8-0.4,6.5-0.8,7-0.8c0,0,0.1,0,0.1,0c0.2-0.3,0.7-0.7,4.2-0.7l0.4,0c2.7,0,3.6,0.1,3.8,1.4c0.2,1.3-0.8,1.9-2,2.5
			c-1.2,0.7-3,1.4-3.9,1.6c-0.7,0.2-6.3,2.3-13.3,5.2c-31.2,12.8-47.4,16.8-75.2,18.9c-7.6,0.6-14.5,0.9-20.6,0.9
			c-7.6,0-17.3-0.5-20.7-2.7c-0.6-0.4-4.9-1.9-10.3-3.2c-9.4-2.4-9.9-3-10.1-3.2l-0.2-0.3c-0.3,0.1-0.6,0.2-0.9,0.2
			c-0.4,0-0.9-0.1-1.3-0.3C243.7,348,243.7,347.2,243.7,346.7 M237.7,344.4l0.5-1h0.8c0.3,0,0.8,0.1,1.5,0.3
			c0.6,0.2,2.1,0.7,2.1,2.2l-0.3,1.4l-0.8,0.3c-0.2,0.1-0.5,0.2-0.8,0.2c-0.9,0-1.8-0.5-2.4-1.2
			C238.1,346.3,237.4,345.5,237.7,344.4 M232.8,341.8c0.9,0,2.2,0.6,2.7,1.7l0.4,1.1l-0.3,0.7c-0.2,0.3-0.6,0.9-1.5,0.9
			c-0.3,0-0.7-0.1-1.1-0.2c-0.9-0.3-2.7-0.9-2.6-2.7C230.6,341.8,232.2,341.8,232.8,341.8 M220.3,341.2c0.2-1.4,1.5-1.5,2-1.5l0.3,0
			c1.1,0,1.8,0.4,2,1.2l0.2,1.1l-0.5,0.7c-0.4,0.5-1,0.7-1.6,0.7c-0.4,0-0.9-0.1-1.3-0.3C220.2,342.6,220.2,341.6,220.3,341.2
			 M409.1,338.6c-2.5,2.3-8.2,8.3-12.7,13.4c-11.5,12.9-15.6,16.7-23.5,21.3c-11.2,6.6-21.6,9.5-34.6,9.5l-0.6,0
			c-9.5,0-18.6-0.7-24.8-1.8c-8.6-1.6-14.8-2.9-17.9-3.8c-1.9-0.5-5.1-1.2-7.3-1.6c-3.9-0.6-10.4-2.4-21-5.5c-3-0.9-6.8-2-8.2-2.3
			c-1.2-0.3-3.1-0.9-3.9-1.6c-1.4-1.2-17.6-8.4-19.5-8.6l-0.3,0c-0.5,0-1-0.2-1.3-0.6c-0.3-0.3-0.5-0.8-0.6-1.3
			c-0.1-0.1-0.3-0.1-0.5-0.1c-1.1,0-5.1-1.1-8.3-2.2c-3.8-1.2-7.5-2.1-8.6-2.1c-1.7,0-3.5-0.7-3.5-2.5c0-2.6,3-2.6,4.3-2.6
			c7.1,0,24.4,4.1,46.2,11c10.3,3.2,12.3,3.6,24.5,3.6c0,0,1.3,0,1.3,0c16.1,0,37.5-1.3,43.2-2.6c2.4-0.6,6-1.3,7.9-1.5
			c6.3-0.9,19.6-4.7,28.4-8.2c12.5-4.9,38.7-15.2,41.2-16.3c1.8-0.8,2.8-1,3.4-1c1.1,0,1.6,0.9,1.6,1.8
			C414.1,333.6,414.1,334,409.1,338.6"/>
	</g>
</g>
<g class="st0">
	<g>
		<defs>
			<rect id="SVGID_3_" x="484.8" y="170.4" width="22.6" height="131.7"/>
		</defs>
		<clipPath id="SVGID_4_">
			<use xlink:href="#SVGID_3_"  style="overflow:visible;"/>
		</clipPath>
		<path class="st2" d="M492.1,237.2c-0.3,2.7-1.7,12.8-2.9,22.6c-1.5,11.2-4.8,36.2-4.4,42.4c1.7-2.8,5.4-10.6,7.6-15.2
			c5.3-11.3,11.3-25.4,15-35.1v-6.8c-0.6,1.6-1.2,3.2-1.9,5c-7.6,19.7-7.7,19.7-8.9,19.3l-0.5-0.2l-0.2-0.5c-0.3-0.6-0.5-1,5.2-27.1
			c2-9.1,4-17.8,6.3-26.6V206c-3.5,12.8-6.4,24.6-8.7,35.5c-4.4,20.8-4.6,20.7-6.1,20.3c-1.2-0.4-1-2-0.7-5.4c0.2-2,0.5-4.5,0.8-5.7
			c0.2-1.1,1.2-8.7,2.1-16.6l2.3-18.9c0.3-2.4,1.7-10.3,3.2-17.6c2.1-10.3,2.9-13.6,7-22v-5c-0.2,0.3-0.3,0.6-0.5,0.9
			C500.1,183.3,497.2,196.2,492.1,237.2"/>
	</g>
</g>
<g class="st0">
	<g>
		<defs>
			<rect id="SVGID_5_" x="398" width="112.1" height="241.8"/>
		</defs>
		<clipPath id="SVGID_6_">
			<use xlink:href="#SVGID_5_"  style="overflow:visible;"/>
		</clipPath>
		<path class="st3" d="M493.8,52.5c0.8-2.2,3.5-10.7,5.6-17.6c2.5-8.4,7-19.7,10.7-27V0c-10.7,12.8-15.2,20.5-21.6,35.8
			c-5.8,13.9-20.7,41.4-28.9,53.5c-11.5,16.9-15.8,26.3-24.4,52.8c-3.4,10.6-11.6,34.1-13.8,39.9c-0.5,1.4-2.4,6.5-4.3,11.4
			c-1.8,5-4,10.6-4.9,12.5c-0.8,1.9-3,7.4-4.8,12.3c-1.8,5-4.4,11.5-5.7,14.5c-1.3,2.9-2.9,6.8-3.6,9.1c6.4-5.2,17.5-16.1,21.8-21.5
			c2.8-3.5,7.5-9.1,10.5-12.6c14.2-16.5,17.6-21,18-21.6c0.2-1.1,1-1.9,1.6-2c0.4-0.3,2.7-3,16.8-24.1c1.9-2.9,3.4-5.6,3.5-6.2
			c0.3-1.2,1-2.5,1.7-3.1c1.2-1.4,10.2-19.1,14.5-28.8c3.3-7.4,7-22.2,7.8-31.2c0.6-7.2,4-24,6.9-34.5c1-3.7,2.9-10.6,4.2-15.5
			c1.1-4.1,2.8-9.4,4.8-15.1v-6.2c-1.7,4.8-3.7,10.4-4.7,13.2c-2.1,5.6-9.3,33.4-11.5,44.4c-0.6,2.8-1.6,9.1-2.1,13.7
			c-0.6,4.8-1.2,9.4-1.4,10.3c-0.7,3.8-5.6,20-6.8,22.2c-0.7,1.1-2.4,4.6-3.9,7.8c-1.6,3.3-4.7,9.6-7.1,14c-2.6,4.9-4.6,8.6-4.8,9.1
			c-2,4.3-18.6,27.2-27.3,37.8c-5.7,6.9-11.5,13.9-12.8,15.6c-2.2,2.8-2.9,3.2-3.6,2.9l-0.7-0.3l-0.2-0.7c-0.2-0.6-0.4-1.4,2.5-5.8
			c4-6.1,15.8-28.7,20.5-38.9c5-11,15.7-36.9,20.8-50.3c4.3-11.3,11.4-27.4,14.6-33.3c0.9-1.6,1.4-2.7,1.6-3.2
			c-0.1-0.7,0.1-1.5,1.3-3.1C485.2,73.7,489.1,64.9,493.8,52.5 M481.9,74.6c-8.4,17.5-11.3,24.3-19.7,45.6c-2.7,6.8-5.6,14-6.4,15.9
			c-0.9,1.9-2.4,5.6-3.5,8.3c-3.9,9.8-7.9,19-11,25.2c-1.8,3.7-3.4,7-3.7,7.7c-1.1,2.7-9.9,18-16,28.1l-0.8,1.3
			c-8.3,13.7-8.3,13.7-9.5,13.4c-1-0.3-1-1.7-1-2.6c0-1.5,0.9-4,1.8-5.7c0.8-1.7,3-7.1,4.8-12c1.8-5,4.6-12.6,6.3-17
			c1.6-4.4,3.6-10,4.5-12.5c0.8-2.5,2.3-6.5,3.3-8.9c0.9-2.2,2.1-6.1,2.7-8.3c0.6-2.5,2.3-7.7,3.8-11.6c1.5-3.7,3.3-8.7,3.9-10.9
			c1.9-6,8.3-20.8,11-25.1c1.2-2,4.7-7.3,7.8-11.9c3.1-4.6,6.6-9.9,7.9-11.9c2.7-4.4,15.9-29.4,18.8-35.7c1.1-2.4,2.2-4.8,2.5-5.3
			c0.3-0.5,2.4-5.5,4.8-11.1c5-11.7,5.6-11.5,6.5-11.2l0.5,0.2l0.2,0.6c0.3,0.6,0.3,1.3-1.1,5.6l-2.6,8.1c-0.5,1.7-1.8,5.7-2.8,9.1
			C492.6,49.4,486.1,65.8,481.9,74.6"/>
	</g>
</g>
<g class="st0">
	<g>
		<defs>
			<rect id="SVGID_7_" x="374.1" y="321.7" width="136" height="108.7"/>
		</defs>
		<clipPath id="SVGID_8_">
			<use xlink:href="#SVGID_7_"  style="overflow:visible;"/>
		</clipPath>
		<path class="st4" d="M500.4,332.7c-20.8,22.6-26.4,28-31.6,30.2c-10.1,4.4-21.7,8.8-27,10.3c-2.7,0.8-4.5,1.5-5,1.8
			c-0.5,0.9-1.5,1.2-2.6,0.9c-0.2-0.1-0.3-0.1-0.4-0.1c0,0-0.1,0,0-0.1c-0.6,0.8-4,3-5.4,3.9c-7.8,4.9-27.5,24.5-35.7,35.5
			c-1.3,1.8-3.3,4.3-4.4,5.5c-0.6,0.7-2.8,3.8-5.6,8c-0.1,0-0.1,0-0.2,0c-2.7,0.6-5.5,1.1-8.3,1.7h19.1c1.4-0.8,5.6-1.9,17.6-4.2
			c-1.1,1.3-2.3,2.7-3.6,4.2h3.9c1.5-1.8,3-3.5,4.5-5.1c10-1.9,17.2-3,23.8-3c-2,2.8-4,5.5-6,8.2h3.1c2.1-2.8,4.1-5.5,5.9-8.1
			c3.6,0.1,7.4,0.6,12.4,1.5c11.2,2,12.7,2.2,22.5,6.7h8c-20.8-9.2-28.2-10.9-40.8-11.1c10.5-15.4,13.9-20.9,19.8-32.6
			c5.4-10.7,11.8-22.4,14.1-24.5c0.6-0.6,1.2-1.3,1.2-1.3c0.4-1.8,19-21.7,19.2-21.9c0.5-0.4,0.8-1,0.9-1.2c0.2-1.2,1-2,1.8-2.1
			c0.8-0.5,5.1-5.3,8.5-9.3v-4.5C507.2,325.2,504,328.8,500.4,332.7 M414.6,421.8c-2.2,0.4-4.5,0.9-7,1.5
			c-3.4,0.8-12.6,2.7-21.6,4.6c8.5-12.1,16.3-21.2,27.8-32.9c6.6-6.7,21.1-17.4,25.4-18.2c1.2-0.2,1.9-0.6,2.2-0.7
			c0.4-1,1.6-1.5,3-1c0.5,0.1,1.9-0.1,3.3-0.8c0.3-0.2,2.8-1.5,4.4-1.1l0.1-0.2l0.4-0.3c1.2-0.9,6.5-2.4,7.9-2l0.6,0.3l0.2,0.5
			c1.4,2.9-25.2,28.4-25.5,28.6C427.1,408.3,421.7,413.7,414.6,421.8 M460.7,387.5c-5.3,10.3-8.7,15.9-17.3,29
			c-0.6,0.9-1.3,1.9-1.9,2.8l-1.1,0c-7.7,0-13.7,0.4-20.9,1.7c5.9-6.5,11.2-12,16.2-16.6c6.9-6.5,20.1-20.6,26.1-27.8
			c1.1-1.3,1.8-2,2.6-1.7l0.7,0.3l0.2,0.7C465.6,376.5,465.9,377.5,460.7,387.5"/>
	</g>
</g>
</svg>
