<?xml version="1.0" encoding="utf-8"?>
<!-- Generator: Adobe Illustrator 23.0.1, SVG Export Plug-In . SVG Version: 6.00 Build 0)  -->
<svg version="1.1" id="Layer_1" xmlns="http://www.w3.org/2000/svg" xmlns:xlink="http://www.w3.org/1999/xlink" x="0px" y="0px"
	 viewBox="0 0 704.7 231" style="enable-background:new 0 0 704.7 231;" xml:space="preserve">
<style type="text/css">
	.st0{opacity:0.75;}
	.st1{clip-path:url(#SVGID_2_);fill:#AF8D33;}
	.st2{clip-path:url(#SVGID_4_);fill:#AF8D33;}
	.st3{clip-path:url(#SVGID_6_);fill:#AF8D33;}
	.st4{clip-path:url(#SVGID_8_);fill:#AF8D33;}
</style>
<g class="st0">
	<g>
		<defs>
			<rect id="SVGID_1_" y="104.2" width="121.4" height="126.8"/>
		</defs>
		<clipPath id="SVGID_2_">
			<use xlink:href="#SVGID_1_"  style="overflow:visible;"/>
		</clipPath>
		<path class="st1" d="M2.8,231H0c0.2-0.4,0.4-0.8,0.5-1.2c3.3-6.6,13.4-20,19.2-25.6c3.3-3.2,27.9-26.1,29.9-27.7
			c1-0.9,7.1-6.3,13.4-11.9c6.3-5.6,14.5-12.9,18.1-16.1c3.7-3.3,8.5-7.7,10.6-9.9c2.1-2.2,4.8-4.7,6-5.6
			c3.3-2.6,14.3-16.6,18.7-23.8c1.3-2.1,3.1-4.9,4.2-4.9c1.5,0.3,1,8.6-0.5,27.6c-0.8,9.9-1.6,24-1.9,31.5
			c-0.6,16.8-1.6,23.6-5.3,38c-3.1,12-6.4,21.2-10.8,29.8h-3.1c7.2-13.4,11.9-27.6,14.6-43.4c0.8-4.6,1.8-17.1,2.3-27.9
			c0.5-10.7,1.2-22.9,1.6-27c0.9-8.4,0.7-8.6,0.2-9.1l-0.3-0.3l-0.4,0c-0.7,0-1.1,0.4-2.4,4c-1.4,4-12.3,20.4-16.9,25.4
			c-4.6,5-17.1,17.3-21,20.5c0,0-3.2,2.7-3.7,3.4c-0.3,0.4-4.9,5-11.1,11.2c-16.1,16.1-20.6,21.2-27.8,31.8
			c-5.7,8.4-5.7,8.4-5.7,9.6c0,0-0.5,0.8-1.1,1.9h-3.2c1.5-2.8,2.7-4.9,3.3-5.5c0.9-0.2,1.6-1.3,1.6-2.6c0.1-0.3,1.4-2.8,3.4-5.9
			c2.1-3.1,4.1-6.2,4.5-7c0.7-1,9.1-10.3,20.2-22.1c1.2-1.2,7.6-7.5,14.3-14l18.9-18.4c7.9-7.7,16.1-18.5,20-26.2
			c2.9-5.9,2.8-6,2.5-6.8l-0.3-0.7l-0.7,0c-0.5,0-0.7,0-5,4.9c-4.2,4.9-15.4,16.1-20,20c-2.7,2.3-5.6,4.9-25.7,23.3
			c-4.6,4.2-7.9,6.8-8.5,7.1c0,0,0,0-0.1,0c-0.9,0-1.7,1.1-1.7,2.4c0,0,0,0,0,0c-0.1,0-1.1,1.1-2.7,2.3c-1.9,1.4-4,3.2-4.7,4
			c-0.6,0.7-5.8,5.5-12.5,11.7C16.5,210.6,8.7,219.9,2.8,231"/>
	</g>
</g>
<g class="st0">
	<g>
		<defs>
			<rect id="SVGID_3_" x="141.7" width="220.7" height="231"/>
		</defs>
		<clipPath id="SVGID_4_">
			<use xlink:href="#SVGID_3_"  style="overflow:visible;"/>
		</clipPath>
		<path class="st2" d="M361.7,0.8c-0.2-0.3-0.6-0.7-0.7-0.8c-0.3,0-1.5,0.9-2.5,1.7c-1.5,1.2-3.5,2.4-4.6,2.7
			c-0.9,0.3-7.3,3.1-14.2,6.2c-7,3.1-16.7,7.1-21.7,8.9c-17.6,6.3-43.1,16.2-49.6,19.3C261.8,42,250,49.3,249,50.5
			c-0.9,1.2-5.3,4.3-6.7,5.3c-5.3,3.7-13.3,12.4-17.9,19.6c-2.7,4.2-4.5,7.3-4.6,7.6c0,1.4-1.7,3.8-2.1,4.2
			c-0.9,1.2-2.9,4.7-4.3,7.8c-1.6,3.3-3.5,6.8-4.4,8.1c-3.1,4.3-12.8,25.3-22.2,48c-7.8,18.9-8.8,20.6-27.2,44.9
			c-5.3,7-14.3,24-14.5,26.2c0,1.3-1.2,3.8-1.8,5c-0.3,0.5-0.8,1.9-1.6,4h5.4c1.9-2.1,5.1-5.8,8.5-10c4.7-5.7,15.3-16.6,23.6-24.4
			c15.1-14.2,16.2-15.2,23.2-21.6c2.2-2,5.7-5.1,7.8-6.9c2.3-1.9,3.9-3.4,4.1-3.6c1.1-1.6,12.1-9.3,17.8-12.8
			c11.4-7.1,16.6-11.4,22.9-19.1c3.4-4.1,5.6-7.1,6-7.8c0.8-3.2,8.1-12.3,11.2-15.7c7-7.4,10.5-10.1,28.6-21.7
			c12.3-7.9,18.6-13.8,28.3-26.2c6.8-8.7,9.4-12.7,18.5-28.3c1.5-2.5,4.6-8.7,6.8-13.6c2.3-5.1,5.1-10.7,6.2-12.6
			C363.1,2.5,362.4,1.6,361.7,0.8 M181.6,169.6c0.9-1.6,4.4-9.9,7.8-18.2c3.5-8.5,7.3-17.4,8.5-19.9c1.2-2.4,3-6,3.8-8
			c1.8-4,7.2-14.6,15-29c2.7-5,5.8-10.9,7-13c7.5-14.1,28.5-31.8,48.9-41.2c5.4-2.5,22.9-9.6,24.3-9.6c0.2,0,1.4-0.4,2.7-1.1
			c1.4-0.7,2.9-1.4,3.4-1.6c0.5-0.2,5.1-1.8,10.4-3.7c5.2-1.8,14.4-5.4,20.3-8l1.8-0.8c6.9-3,9-3.9,10-3.9l1,0.1l0.3,0.7
			c0.4,0.9,0,1.8-0.6,3c-0.7,1.3-2.3,3.2-3.7,4.2c-1.2,0.9-3.1,2.7-4.2,4c-1.2,1.4-4.1,4.5-6.6,6.9c-2.6,2.6-4.5,4.5-4.7,4.8
			c-0.2,0.3-0.7,0.9-17,14.8c-6,5.1-10.8,8.9-13.3,10.4c-1,0.6-2.2,1.5-2.9,2c-0.8,0.7-4.7,3-8,4.9c-17.5,10-21.8,12.9-30.6,20.6
			c-5.9,5.1-9.5,8.5-9.8,8.8c-0.5,0.8-5,5.3-5,5.3c-6,6-11.9,13.6-21.1,27.4c-12,18-17.5,24.9-29.7,36.9c-6.3,6.2-6.8,6.2-7.4,6.2
			l-0.8-0.1l-0.3-0.8C180.8,171,181.3,170.1,181.6,169.6 M348.3,25.7c-4.2,8.2-6.8,12.6-10.9,18.6c-1.3,1.9-2.1,3.2-2.1,3.2
			c0,0,0,0,0,0c0,2.9-17.2,22.2-20.9,25.6c-3.4,3.1-11.3,9-17.5,13c-20.1,12.9-27.4,20-39.4,38.2c-6.5,9.9-13,16.1-24.8,23.5
			c-8.9,5.6-19.9,14.1-26.4,20.2c-1.2,1.1-7.1,6.6-13,12.1c-6.5,6-10.5,10-10.8,10.3c-0.3,1-1.1,1.6-1.8,1.6c0,0,0,0-0.1,0
			c-1.1,0.5-9.4,8-14.1,13.1l-2.1,2.3l-1.7-1.8l1.5-3.2c1.9-4,19.2-25.3,24.5-30.6c2-1.9,4.2-4.2,5-5.1c0.8-0.9,2.6-2.7,4-4
			c5-4.8,19.7-24.1,23.5-30.9c0.7-1.4,1.8-3,2.4-3.6c0.4-0.5,2.5-3.5,4.7-6.8c4.9-7.5,16-19.6,26.9-29.4
			c10.2-9.2,16.7-13.9,25.9-18.7c3.8-2,9-5,11.6-6.8c2.7-1.8,6.1-4.1,7.5-5c4.3-2.8,26.4-21.7,32-27.4l8.3-8.5
			c9.8-10.1,10.6-10.1,10.8-10.1l0.7,0l0.3,0.7C352.5,17.1,352.6,17.2,348.3,25.7"/>
	</g>
</g>
<g class="st0">
	<g>
		<defs>
			<rect id="SVGID_5_" x="213.5" y="53.5" width="275.8" height="177.6"/>
		</defs>
		<clipPath id="SVGID_6_">
			<use xlink:href="#SVGID_5_"  style="overflow:visible;"/>
		</clipPath>
		<path class="st3" d="M485.8,69.4c-4.1-4.9-6.6-6.5-16.2-10.5c-9-3.7-16.5-5.5-23.7-5.5c-8.8,0-17.3,2.8-26.7,8.7
			c-9.8,6.2-10.6,6.8-21.7,18.6c-11.8,12.4-25.4,24.5-34,29.9c-6.4,4.1-23.4,11.9-29.2,13.4c-0.6,0.2-5.7,1.9-12.1,4.3
			c-38,13.8-46.1,18.9-66.7,41.8c-14.5,16.2-19.5,22.6-22.2,28.5c-1.5,3.3-4.6,8.7-7.1,12.2c-2.3,3.3-8,12.2-12.8,20.2h3.2
			c11.6-19.2,18.3-27.5,25.9-32.2c5.8-3.6,8.7-5.1,10.1-5.4c0.3-0.1,1.9-0.8,3.7-1.5c1.9-0.8,10.1-3.3,18.2-5.5
			c8-2.2,19.7-5.4,25.9-7.2c6.3-1.8,14.5-3.5,18.4-3.8c3.7-0.2,9.2-1,12-1.6c5.6-1.2,27-9.6,32.7-12.8c1.9-1.1,10.1-5.2,18.2-9.2
			c14.2-7,18.7-9.6,24.1-13.9c7.6-6,9.8-8.4,16.7-18.4c11.2-16.1,19.4-25.9,27.3-32.9c10.9-9.6,14.1-10.8,28.3-11
			c3.6,0,10.4-0.1,11.1-1.1C489.3,73.9,488.1,72.2,485.8,69.4 M463.4,74c-12.1,4.8-27.1,20-43.2,44c-6.1,9-15,17.9-22.2,22
			c-6.3,3.6-12,6.6-18.4,9.5c-3.5,1.6-8.3,4-10.3,5.3c-5.2,3.1-17.8,9-26.9,12.7c-6.9,2.8-13.4,4.1-27.6,5.4
			c-3.4,0.3-5.8,0.8-6.1,0.9c-0.7,0.6-2.2,1.1-7.8,2.5c-19.8,4.9-44.2,12.1-49.4,14.5c-2,1-2.6,1.1-3,1.1l-1.1-0.1l-0.2-1.1
			c-0.6-3.4,23.6-16.5,23.9-16.6c3.9-2.1,8.7-4.6,9.5-4.6h0c1.8-0.6,14.9-6.3,18.3-8c2.1-1,6.5-4.1,9.8-6.9
			c4.2-3.5,12.9-10.1,14.8-10.1c0.2,0,0.4,0,0.5,0.1c0.7,0,2.2-0.2,3.9-0.4c2.2-0.3,5.8-0.9,8.3-1.2c6.4-0.8,10-1.6,11.8-2.6
			c3.2-1.7,14.8-6.4,20.4-8.2c6.6-2.1,24.4-12,29.8-16.5c4.4-3.7,11.7-11.3,18.6-19.3c15.8-18.3,29.4-26.2,45.4-26.5l4.3-0.1
			l0.4,2.8L463.4,74z M473.2,65.5c-0.3,1.6-1.3,1.7-8.9,1.7c-5.4,0-10.1,0.3-11.1,0.5c-5.3,1.2-12.6,4.1-16.5,6.8
			c-10,6.7-12.1,8.7-25.7,24.1c-5.2,5.9-11.1,12-13.2,13.7c-7.1,5.6-20.8,13.5-29.3,16.9c-4.7,1.9-10.2,4.1-12.4,5.1
			c-0.4,0.2-4,1.8-4.5,1.9c-0.3,0.1-2.2,0.7-4.3,1.5c-2.2,0.8-5,1.6-6.3,1.8c-1.2,0.2-4.5,0.6-7.4,1c-10.4,1.4-12,1.8-16.1,4.1
			c-2.4,1.4-7.6,5.2-11.5,8.5c-1.8,1.5-7.7,6.4-9.1,6.4c-0.3,0-1.4,0.3-2.1,0.9c-1.1,0.7-6.6,3.1-11.3,5.1
			c-5.1,2.1-14.5,7-20.4,10.7c-10.7,6.6-11.2,6.8-11.5,6.8c0,0-1.2,0-1.2,0v-1.4c0-2.2,22.8-25,23-25.2c4.7-4,11.3-8.4,16.7-11.2
			c3.9-2,27.7-11.8,34.5-14.1c18-6.2,29.6-11,37.6-15.6c8.4-4.8,23.2-17.5,35.3-30c19.5-20.3,30.1-26.7,47.1-28.6
			c0.4,0,0.9-0.1,1.4-0.1c3.8,0,10.2,1.2,17.2,3.3c3.1,0.9,7.1,2.4,8.5,3.3C472.4,63.4,473.5,64.1,473.2,65.5"/>
	</g>
</g>
<g class="st0">
	<g>
		<defs>
			<rect id="SVGID_7_" x="273.6" y="120.5" width="431.1" height="110.6"/>
		</defs>
		<clipPath id="SVGID_8_">
			<use xlink:href="#SVGID_7_"  style="overflow:visible;"/>
		</clipPath>
		<path class="st4" d="M704.7,120.8c0,0-0.3-0.4-1.4-0.4c-1.3,0-3.1,0.5-5.4,1.3c-2.5,1-12.4,2.5-22.5,3.5c-10,1-18.9,1.9-20.2,2.1
			c-1.3,0.2-5,0.6-8.3,1c-7,0.9-18.7,3.8-29.1,7.4l-16,5.5c-11.3,3.9-16.6,4.5-40.3,4.5c-23.7,0-30.6-0.7-46.5-4.5
			c-9.9-2.4-15.8-3.4-20.5-3.4c-3.4,0-6.4,0.5-9.6,1.7c-8,3-14.2,7.9-30.1,23.9c-18.7,18.7-27.7,26.2-45.8,38l-15.6,10.1l-18.7,1.5
			c-10.2,0.8-20.4,1.7-22.7,2l-14.3,1.7c-19.3,2.3-43.8,7.8-64,14.1h13c1.8-0.5,3.6-0.9,5.2-1.2c1.4-0.3,5.5-1.2,9.1-2.1
			c29.3-7.3,82.3-12.8,138.4-14.3l25.9-0.7l7.9,3.6c4.8,2.2,14.8,8,25.6,14.6H526c-3-0.9-6.1-1.7-9.7-2.3
			c-2.1-0.4-31.4-7.5-31.4-11.7c0-1.7,1.6-1.7,2.3-1.7c3.7,0,14.2,1.7,22.4,3.2c11.6,2,30.5,7.1,47.2,12.6c0,0,0,0,0,0h12.6
			c-33.4-11.5-63.4-18.5-89.4-20.7c-4.8-0.4-14.2-0.6-25.8-0.6c-17.6,0-35.2,0.5-43.6,1.2l-4.8,0.4l-0.6-2.7l7.9-5.1
			c7.7-5,19.9-14.7,20.8-16.1c0.6-1,2.7-2.3,2.8-2.4c0.9-0.6,6.8-6.1,14-13.1c12.3-12,13.4-12.2,13.7-12.2h0
			c0.4-0.1,2.8-1.1,5.9-2.7c3.5-1.8,5.3-2.6,8.8-2.6c1.3,0,2.9,0.1,4.9,0.3c3.9,0.3,8.4,0.8,9.3,1.1c0.7,0.2,2.8,0.8,4.6,1.2
			c2,0.5,4.4,1.3,5.5,1.9c0.9,0.5,3.4,1.5,5.4,2.1c2.2,0.7,5.6,2.2,7.6,3.3c9.3,5.4,26.7,11.2,46.7,15.5c4.8,1.1,9.5,2.1,10.5,2.4
			c0.9,0.2,3.2,0.6,5.1,0.9c1.8,0.2,4.2,0.7,5.1,1.1c2.4,1.1,15.1,2.2,26,2.2c1.3,0,2.6,0,3.9,0c13.5-0.3,19.1-1.8,31.7-8.2
			c8.7-4.5,16-10.7,26-22.2c6.4-7.4,23.3-24.2,33.1-32.9c0.1-0.3,0.2-0.8,0.3-1.6C704.7,121.3,704.8,121,704.7,120.8 M513.5,144.1
			l0.5-1h0.8c0.3,0,0.8,0.1,1.5,0.3c0.6,0.2,2.1,0.7,2.1,2.2l-0.1,0.4c0.4-0.1,0.8-0.2,1-0.2l0.3,0c1.1,0,1.7,0.4,2,1.2l0,0.1
			c0.3-0.1,0.5-0.1,0.8-0.1c1.1,0,3.1,0.2,5.4,0.5c3.5,0.5,19.1,0.9,34.6,0.9h4c25.4,0,25.7-0.1,42.9-6.2l1.4-0.5
			c9.6-3.4,17.6-6,23.1-7.5c3.5-1,20.2-3.6,27.5-4.3c3.8-0.4,6.5-0.8,7-0.8c0,0,0.1,0,0.1,0c0.2-0.3,0.7-0.7,4.2-0.7l0.4,0
			c2.7,0,3.6,0.1,3.8,1.4c0.2,1.3-0.8,1.9-2,2.5c-1.2,0.7-3,1.4-3.9,1.6c-0.7,0.2-6.3,2.3-13.3,5.2c-31.2,12.8-47.4,16.8-75.2,18.9
			c-7.6,0.6-14.5,0.9-20.6,0.9c-7.6,0-17.3-0.5-20.7-2.7c-0.6-0.4-4.9-1.9-10.3-3.2c-9.4-2.4-9.9-3-10.1-3.2l-0.2-0.3
			c-0.3,0.1-0.6,0.2-0.9,0.2c-0.4,0-0.9-0.1-1.3-0.3c-1.1-0.6-1.2-1.5-1.1-1.9c-0.2,0.1-0.5,0.2-0.8,0.2c-0.9,0-1.8-0.5-2.4-1.2
			C513.9,146,513.2,145.2,513.5,144.1 M506.4,142.4c0.9,0,2.2,0.6,2.7,1.7l0.4,1.1l-0.3,0.7c-0.2,0.3-0.6,0.9-1.5,0.9
			c-0.3,0-0.7-0.1-1.1-0.2c-0.9-0.3-2.7-0.9-2.6-2.7C504.2,142.4,505.8,142.4,506.4,142.4 M493.9,141.8c0.2-1.4,1.5-1.5,2-1.5l0.3,0
			c1.1,0,1.8,0.4,2,1.2l0.2,1.1l-0.5,0.7c-0.4,0.5-1,0.7-1.6,0.7c-0.4,0-0.9-0.1-1.3-0.3C493.9,143.2,493.9,142.2,493.9,141.8
			 M682.8,139.3c-2.5,2.3-8.2,8.3-12.7,13.4c-11.5,12.9-15.6,16.7-23.5,21.3c-11.2,6.6-21.6,9.5-34.6,9.5l-0.6,0
			c-9.5,0-18.6-0.7-24.8-1.8c-8.6-1.6-14.8-2.9-17.9-3.8c-1.9-0.5-5.1-1.2-7.3-1.6c-3.9-0.6-10.4-2.4-21-5.5c-3-0.9-6.8-2-8.2-2.3
			c-1.2-0.3-3.1-0.9-3.9-1.6c-1.4-1.2-17.6-8.4-19.5-8.6l-0.3,0c-0.5,0-1-0.2-1.3-0.6c-0.3-0.3-0.5-0.8-0.6-1.3
			c-0.1-0.1-0.3-0.1-0.5-0.1c-1.1,0-5.1-1.1-8.3-2.2c-3.8-1.2-7.5-2.1-8.6-2.1c-1.7,0-3.5-0.7-3.5-2.5c0-2.6,3-2.6,4.3-2.6
			c7.1,0,24.4,4.1,46.2,11c10.3,3.2,12.3,3.6,24.5,3.6c0,0,1.3,0,1.3,0c16.1,0,37.5-1.3,43.2-2.6c2.4-0.6,6-1.3,7.9-1.5
			c6.3-0.9,19.6-4.7,28.4-8.2c12.5-4.9,38.7-15.2,41.2-16.3c1.8-0.8,2.8-1,3.4-1c1.1,0,1.6,0.9,1.6,1.8
			C687.8,134.2,687.8,134.6,682.8,139.3"/>
	</g>
</g>
</svg>
